<?xml version="1.0" encoding="UTF-8"?>
<svg version="1.1" xmlns="http://www.w3.org/2000/svg" width="4592" height="2296">
<path d="M0 0 C0.6712088 0.00304138 1.3424176 0.00608276 2.03396606 0.00921631 C33.09396067 0.21627374 59.62975746 11.5457036 82.5625 32.5 C83.3349707 33.20515747 83.3349707 33.20515747 84.12304688 33.92456055 C87.63442521 37.20887125 90.77186923 40.72488697 93.90893555 44.36499023 C97.03131235 47.87988968 100.39486093 51.14663562 103.75 54.4375 C108.35802955 58.95725312 112.76017797 63.54682227 116.97265625 68.4375 C120.07386585 71.92721278 123.41834132 75.1696662 126.75 78.4375 C131.35802955 82.95725312 135.76017797 87.54682227 139.97265625 92.4375 C143.07386585 95.92721278 146.41834132 99.1696662 149.75 102.4375 C154.35802955 106.95725312 158.76017797 111.54682227 162.97265625 116.4375 C166.07386585 119.92721278 169.41834132 123.1696662 172.75 126.4375 C176.70867373 130.32033707 180.60058338 134.20090662 184.21875 138.40625 C188.01142048 142.80953182 192.10573206 146.86736924 196.25 150.9375 C201.02880802 155.6308195 205.62155094 160.37741978 209.99023438 165.45507812 C213.08394006 168.94021827 216.42436478 172.17557426 219.75 175.4375 C224.35802955 179.95725312 228.76017797 184.54682227 232.97265625 189.4375 C236.07386585 192.92721278 239.41834132 196.1696662 242.75 199.4375 C247.35802955 203.95725312 251.76017797 208.54682227 255.97265625 213.4375 C259.07386585 216.92721278 262.41834132 220.1696662 265.75 223.4375 C269.70867373 227.32033707 273.60058338 231.20090662 277.21875 235.40625 C281.01142048 239.80953182 285.10573206 243.86736924 289.25 247.9375 C294.02880802 252.6308195 298.62155094 257.37741978 302.99023438 262.45507812 C306.08394006 265.94021827 309.42436478 269.17557426 312.75 272.4375 C317.35802955 276.95725312 321.76017797 281.54682227 325.97265625 286.4375 C329.07386585 289.92721278 332.41834132 293.1696662 335.75 296.4375 C340.35802955 300.95725312 344.76017797 305.54682227 348.97265625 310.4375 C352.07386585 313.92721278 355.41834132 317.1696662 358.75 320.4375 C363.35802955 324.95725312 367.76017797 329.54682227 371.97265625 334.4375 C375.07386585 337.92721278 378.41834132 341.1696662 381.75 344.4375 C385.70867373 348.32033707 389.60058338 352.20090662 393.21875 356.40625 C397.01142048 360.80953182 401.10573206 364.86736924 405.25 368.9375 C410.02880802 373.6308195 414.62155094 378.37741978 418.99023438 383.45507812 C422.08394006 386.94021827 425.42436478 390.17557426 428.75 393.4375 C433.35802955 397.95725312 437.76017797 402.54682227 441.97265625 407.4375 C445.07386585 410.92721278 448.41834132 414.1696662 451.75 417.4375 C456.35802955 421.95725312 460.76017797 426.54682227 464.97265625 431.4375 C468.07386585 434.92721278 471.41834132 438.1696662 474.75 441.4375 C479.35802955 445.95725312 483.76017797 450.54682227 487.97265625 455.4375 C491.07386585 458.92721278 494.41834132 462.1696662 497.75 465.4375 C501.70867373 469.32033707 505.60058338 473.20090662 509.21875 477.40625 C513.01142048 481.80953182 517.10573206 485.86736924 521.25 489.9375 C526.02880802 494.6308195 530.62155094 499.37741978 534.99023438 504.45507812 C538.08394006 507.94021827 541.42436478 511.17557426 544.75 514.4375 C549.35802955 518.95725312 553.76017797 523.54682227 557.97265625 528.4375 C561.07386585 531.92721278 564.41834132 535.1696662 567.75 538.4375 C572.35802955 542.95725312 576.76017797 547.54682227 580.97265625 552.4375 C584.07386585 555.92721278 587.41834132 559.1696662 590.75 562.4375 C595.35802955 566.95725312 599.76017797 571.54682227 603.97265625 576.4375 C607.07386585 579.92721278 610.41834132 583.1696662 613.75 586.4375 C617.70867373 590.32033707 621.60058338 594.20090662 625.21875 598.40625 C629.01142048 602.80953182 633.10573206 606.86736924 637.25 610.9375 C642.02880802 615.6308195 646.62155094 620.37741978 650.99023438 625.45507812 C654.08394006 628.94021827 657.42436478 632.17557426 660.75 635.4375 C665.35802955 639.95725312 669.76017797 644.54682227 673.97265625 649.4375 C677.07386585 652.92721278 680.41834132 656.1696662 683.75 659.4375 C688.35802955 663.95725312 692.76017797 668.54682227 696.97265625 673.4375 C700.07386585 676.92721278 703.41834132 680.1696662 706.75 683.4375 C711.35802955 687.95725312 715.76017797 692.54682227 719.97265625 697.4375 C723.07386585 700.92721278 726.41834132 704.1696662 729.75 707.4375 C733.70867373 711.32033707 737.60058338 715.20090662 741.21875 719.40625 C745.01142048 723.80953182 749.10573206 727.86736924 753.25 731.9375 C758.02880802 736.6308195 762.62155094 741.37741978 766.99023438 746.45507812 C770.08394006 749.94021827 773.42436478 753.17557426 776.75 756.4375 C781.35802955 760.95725312 785.76017797 765.54682227 789.97265625 770.4375 C793.07386585 773.92721278 796.41834132 777.1696662 799.75 780.4375 C804.35802955 784.95725312 808.76017797 789.54682227 812.97265625 794.4375 C816.07386585 797.92721278 819.41834132 801.1696662 822.75 804.4375 C827.35802955 808.95725312 831.76017797 813.54682227 835.97265625 818.4375 C839.07386585 821.92721278 842.41834132 825.1696662 845.75 828.4375 C849.70867373 832.32033707 853.60058338 836.20090662 857.21875 840.40625 C861.01142048 844.80953182 865.10573206 848.86736924 869.25 852.9375 C874.02880802 857.6308195 878.62155094 862.37741978 882.99023438 867.45507812 C886.08394006 870.94021827 889.42436478 874.17557426 892.75 877.4375 C897.35802955 881.95725312 901.76017797 886.54682227 905.97265625 891.4375 C909.07386585 894.92721278 912.41834132 898.1696662 915.75 901.4375 C919.57205459 905.18633515 923.35128679 908.91188338 926.8125 913 C932.81631291 919.76620185 939.3536238 926.0411238 945.75 932.4375 C946.08 630.8175 946.41 329.1975 946.75 18.4375 C1025.29 18.4375 1103.83 18.4375 1184.75 18.4375 C1184.79029208 158.7150003 1184.79029208 158.7150003 1184.80016333 197.51050736 C1184.80073919 199.77300658 1184.80131513 202.03550579 1184.80189248 204.29800501 C1184.8153776 257.147985 1184.82611997 309.99796515 1184.83468628 362.84794617 C1184.83496518 364.56403721 1184.83524408 366.28012825 1184.83552299 367.99621929 C1184.84136856 404.01870952 1184.84680197 440.04119981 1184.85175936 476.06369018 C1184.85425011 494.1594176 1184.85682006 512.255145 1184.85946488 530.3508724 C1184.85986338 533.08051687 1184.86025962 535.81016135 1184.86065576 538.53980583 C1184.86677455 580.56437988 1184.87458994 622.58895277 1184.8873291 664.61352539 C1184.8876029 665.51685026 1184.8878767 666.42017513 1184.88815879 667.35087347 C1184.89258344 681.9148193 1184.8971507 696.47876507 1184.90173688 711.04271085 C1184.91494695 752.99970408 1184.92709974 794.95669642 1184.93227959 836.91369152 C1184.93244019 838.20836365 1184.93244019 838.20836365 1184.93260404 839.52919077 C1184.93493576 858.4782848 1184.93672538 877.42737883 1184.93800197 896.37647296 C1184.9385252 904.00136536 1184.93912644 911.62625774 1184.93975449 919.25115013 C1184.93982134 920.08565271 1184.93988819 920.92015529 1184.93995707 921.77994583 C1184.94214864 948.65176898 1184.95068627 975.5235855 1184.96256442 1002.39540598 C1184.97450417 1029.47250226 1184.98019567 1056.54959211 1184.97724798 1083.62669109 C1184.97684184 1087.37176465 1184.97650706 1091.11683821 1184.97621536 1094.86191177 C1184.9761556 1095.59602799 1184.97609584 1096.33014421 1184.97603427 1097.08650638 C1184.97527411 1108.69274625 1184.98123189 1120.29897249 1184.99001972 1131.90520865 C1184.99853029 1143.32877639 1184.99969862 1154.75232174 1184.99366363 1166.17589289 C1184.99064519 1172.28236063 1184.99076939 1178.38878298 1184.99976636 1184.49524585 C1185.00790041 1190.05838618 1185.00670045 1195.62144597 1184.99827995 1201.18458516 C1184.99685989 1203.17710873 1184.9987415 1205.16963834 1185.00447049 1207.16215419 C1185.04610575 1222.63253738 1185.06973369 1238.89088279 1180.5 1253.8125 C1180.17793579 1254.91380249 1180.17793579 1254.91380249 1179.84936523 1256.03735352 C1177.78771942 1262.81470944 1175.00363949 1269.14713032 1171.75 1275.4375 C1171.05777344 1276.83355469 1171.05777344 1276.83355469 1170.3515625 1278.2578125 C1155.74814297 1306.57715092 1130.46229879 1325.89765045 1100.53076172 1335.52758789 C1070.79078828 1344.63145518 1036.76161951 1341.98895231 1009.15112305 1327.46142578 C1007.33930336 1326.47239746 1005.54297362 1325.46021257 1003.75 1324.4375 C1002.76902344 1323.89480469 1001.78804687 1323.35210938 1000.77734375 1322.79296875 C988.67306583 1315.63489936 979.19966932 1305.01647258 969.71240234 1294.80737305 C965.46088198 1290.23280287 961.13215193 1285.7619039 956.6875 1281.375 C953.46939371 1278.19567184 950.29862651 1275.0190407 947.375 1271.5625 C943.32638935 1266.78147737 938.8119646 1262.44962859 934.34228516 1258.06689453 C931.19530419 1254.96256225 928.16679144 1251.81885707 925.28125 1248.46875 C921.63933509 1244.2451119 917.72965701 1240.34091837 913.75 1236.4375 C909.14197045 1231.91774688 904.73982203 1227.32817773 900.52734375 1222.4375 C897.42613415 1218.94778722 894.08165868 1215.7053338 890.75 1212.4375 C886.13174047 1207.90771287 881.7180272 1203.30790516 877.49609375 1198.40625 C874.56387042 1195.10011899 871.40589331 1192.02832335 868.25 1188.9375 C864.45587028 1185.22159976 860.74863434 1181.49437536 857.28125 1177.46875 C853.63933509 1173.2451119 849.72965701 1169.34091837 845.75 1165.4375 C841.14197045 1160.91774688 836.73982203 1156.32817773 832.52734375 1151.4375 C829.42613415 1147.94778722 826.08165868 1144.7053338 822.75 1141.4375 C818.13174047 1136.90771287 813.7180272 1132.30790516 809.49609375 1127.40625 C806.56387042 1124.10011899 803.40589331 1121.02832335 800.25 1117.9375 C796.45587028 1114.22159976 792.74863434 1110.49437536 789.28125 1106.46875 C785.63933509 1102.2451119 781.72965701 1098.34091837 777.75 1094.4375 C773.14197045 1089.91774688 768.73982203 1085.32817773 764.52734375 1080.4375 C761.42613415 1076.94778722 758.08165868 1073.7053338 754.75 1070.4375 C750.13174047 1065.90771287 745.7180272 1061.30790516 741.49609375 1056.40625 C738.56387042 1053.10011899 735.40589331 1050.02832335 732.25 1046.9375 C728.45587028 1043.22159976 724.74863434 1039.49437536 721.28125 1035.46875 C717.63933509 1031.2451119 713.72965701 1027.34091837 709.75 1023.4375 C705.13174047 1018.90771287 700.7180272 1014.30790516 696.49609375 1009.40625 C693.56387042 1006.10011899 690.40589331 1003.02832335 687.25 999.9375 C683.45587028 996.22159976 679.74863434 992.49437536 676.28125 988.46875 C672.63933509 984.2451119 668.72965701 980.34091837 664.75 976.4375 C660.14197045 971.91774688 655.73982203 967.32817773 651.52734375 962.4375 C648.42613415 958.94778722 645.08165868 955.7053338 641.75 952.4375 C637.13174047 947.90771287 632.7180272 943.30790516 628.49609375 938.40625 C625.56387042 935.10011899 622.40589331 932.02832335 619.25 928.9375 C615.45587028 925.22159976 611.74863434 921.49437536 608.28125 917.46875 C604.63933509 913.2451119 600.72965701 909.34091837 596.75 905.4375 C592.14197045 900.91774688 587.73982203 896.32817773 583.52734375 891.4375 C580.42613415 887.94778722 577.08165868 884.7053338 573.75 881.4375 C569.13174047 876.90771287 564.7180272 872.30790516 560.49609375 867.40625 C557.56387042 864.10011899 554.40589331 861.02832335 551.25 857.9375 C547.45587028 854.22159976 543.74863434 850.49437536 540.28125 846.46875 C536.63933509 842.2451119 532.72965701 838.34091837 528.75 834.4375 C524.14197045 829.91774688 519.73982203 825.32817773 515.52734375 820.4375 C512.42613415 816.94778722 509.08165868 813.7053338 505.75 810.4375 C501.13174047 805.90771287 496.7180272 801.30790516 492.49609375 796.40625 C489.56387042 793.10011899 486.40589331 790.02832335 483.25 786.9375 C479.45587028 783.22159976 475.74863434 779.49437536 472.28125 775.46875 C468.63933509 771.2451119 464.72965701 767.34091837 460.75 763.4375 C456.14197045 758.91774688 451.73982203 754.32817773 447.52734375 749.4375 C444.42613415 745.94778722 441.08165868 742.7053338 437.75 739.4375 C433.13174047 734.90771287 428.7180272 730.30790516 424.49609375 725.40625 C421.56387042 722.10011899 418.40589331 719.02832335 415.25 715.9375 C411.45587028 712.22159976 407.74863434 708.49437536 404.28125 704.46875 C400.63933509 700.2451119 396.72965701 696.34091837 392.75 692.4375 C388.14197045 687.91774688 383.73982203 683.32817773 379.52734375 678.4375 C376.42613415 674.94778722 373.08165868 671.7053338 369.75 668.4375 C365.13174047 663.90771287 360.7180272 659.30790516 356.49609375 654.40625 C353.56387042 651.10011899 350.40589331 648.02832335 347.25 644.9375 C343.45587028 641.22159976 339.74863434 637.49437536 336.28125 633.46875 C332.63933509 629.2451119 328.72965701 625.34091837 324.75 621.4375 C320.14197045 616.91774688 315.73982203 612.32817773 311.52734375 607.4375 C308.42613415 603.94778722 305.08165868 600.7053338 301.75 597.4375 C297.13174047 592.90771287 292.7180272 588.30790516 288.49609375 583.40625 C285.56387042 580.10011899 282.40589331 577.02832335 279.25 573.9375 C275.45587028 570.22159976 271.74863434 566.49437536 268.28125 562.46875 C264.63933509 558.2451119 260.72965701 554.34091837 256.75 550.4375 C252.14197045 545.91774688 247.73982203 541.32817773 243.52734375 536.4375 C240.42613415 532.94778722 237.08165868 529.7053338 233.75 526.4375 C229.13174047 521.90771287 224.7180272 517.30790516 220.49609375 512.40625 C217.56387042 509.10011899 214.40589331 506.02832335 211.25 502.9375 C207.45587028 499.22159976 203.74863434 495.49437536 200.28125 491.46875 C196.63933509 487.2451119 192.72965701 483.34091837 188.75 479.4375 C184.14197045 474.91774688 179.73982203 470.32817773 175.52734375 465.4375 C172.42613415 461.94778722 169.08165868 458.7053338 165.75 455.4375 C161.13174047 450.90771287 156.7180272 446.30790516 152.49609375 441.40625 C149.56371771 438.09994681 146.40418111 435.03029371 143.25 431.9375 C135.33527413 424.10760919 135.33527413 424.10760919 131.875 420.0625 C128.06521403 415.64314827 123.87584166 411.56334166 119.75 407.4375 C119.42 709.3875 119.09 1011.3375 118.75 1322.4375 C40.54 1322.4375 -37.67 1322.4375 -118.25 1322.4375 C-118.33058416 1180.76155456 -118.33058416 1180.76155456 -118.35032667 1141.57941003 C-118.35147839 1139.2943626 -118.35263027 1137.00931516 -118.35378497 1134.72426773 C-118.38075508 1081.34782169 -118.40223987 1027.97137501 -118.41937256 974.59492493 C-118.41993036 972.86174616 -118.42048817 971.12856739 -118.42104598 969.39538862 C-118.43273712 933.01425162 -118.44360393 896.63311442 -118.45351871 860.25197689 C-118.45850023 841.97609903 -118.46364012 823.70022123 -118.46892977 805.42434346 C-118.46972676 802.66752335 -118.47051924 799.91070324 -118.47131152 797.15388313 C-118.48354917 754.71065824 -118.4991801 712.26743795 -118.5246582 669.82421875 C-118.5252058 668.91188716 -118.52575339 667.99955557 -118.52631758 667.05957758 C-118.53516689 652.35040936 -118.5443014 637.64124132 -118.55347376 622.9320733 C-118.57989373 580.55698282 -118.60419936 538.18189588 -118.61455917 495.80679798 C-118.61477331 494.93509203 -118.61498745 494.06338607 -118.61520808 493.16526478 C-118.61987151 474.02760893 -118.62345076 454.88995304 -118.62600393 435.7522968 C-118.62705039 428.0515425 -118.62825288 420.35078822 -118.62950897 412.65003395 C-118.62964268 411.80722843 -118.62977639 410.9644229 -118.62991415 410.09607782 C-118.63429736 382.95637397 -118.6513729 355.81669638 -118.67512883 328.67700312 C-118.69900777 301.33024026 -118.7103915 273.98350286 -118.70449595 246.63672932 C-118.70368367 242.85445475 -118.70301413 239.07218016 -118.70243073 235.28990555 C-118.7023112 234.54849639 -118.70219168 233.80708722 -118.70206854 233.04321112 C-118.70054815 221.32112458 -118.71246435 209.59909205 -118.73003945 197.87702022 C-118.7470596 186.33974338 -118.74939798 174.80256063 -118.73732725 163.26527251 C-118.73128986 157.09785265 -118.73154059 150.93061261 -118.74953273 144.76321205 C-118.7657987 139.14472939 -118.76340337 133.52656577 -118.7465599 127.90808764 C-118.74371932 125.89555783 -118.7474851 123.8830041 -118.75894098 121.8705049 C-118.93434081 88.95165108 -107.94728996 62.0334456 -86.25 37.4375 C-85.48945312 36.57382812 -84.72890625 35.71015625 -83.9453125 34.8203125 C-71.9465123 22.09705644 -55.81898318 11.73200901 -39.3125 6.125 C-38.63405029 5.89449951 -37.95560059 5.66399902 -37.2565918 5.42651367 C-24.93898759 1.52051201 -12.88797516 -0.10235644 0 0 Z " fill="#FFFFFF" transform="translate(1910.25,635.5625)"/>
<path d="M0 0 C2.40945107 -0.00302692 4.81890118 -0.00691909 7.22834963 -0.01159257 C12.43179891 -0.01968844 17.63521224 -0.0216927 22.83866501 -0.01808929 C30.57765388 -0.01274444 38.31660515 -0.01891549 46.05558995 -0.02717223 C60.69008699 -0.04235824 75.32456664 -0.04412266 89.95906992 -0.0416492 C101.27170056 -0.03981095 112.58432555 -0.04158728 123.89695549 -0.04587364 C125.52680053 -0.04647607 127.15664556 -0.04707727 128.7864906 -0.04767724 C131.24310292 -0.04858459 133.69971524 -0.04949326 136.15632756 -0.0504096 C158.98006582 -0.05883182 181.80380195 -0.06318013 204.62754154 -0.05900288 C205.48679469 -0.0588465 206.34604783 -0.05869012 207.23133895 -0.05852901 C211.58554162 -0.05772333 215.93974428 -0.05687756 220.29394693 -0.05601571 C221.15857087 -0.05584462 222.02319481 -0.05567353 222.91401948 -0.05549726 C224.66249989 -0.0551506 226.4109803 -0.05480207 228.15946071 -0.05445167 C255.33153464 -0.04910122 282.50357606 -0.05700864 309.67564392 -0.07548523 C340.26730036 -0.09626316 370.85893668 -0.10691652 401.45060056 -0.10290974 C404.72140499 -0.10251446 407.99220941 -0.1021529 411.26301384 -0.10181236 C412.47086839 -0.10167627 412.47086839 -0.10167627 413.70312405 -0.10153742 C425.79193969 -0.10037762 437.88073484 -0.10697265 449.96954536 -0.11762428 C463.74531701 -0.12975063 477.5210439 -0.13115099 491.2968163 -0.11883412 C498.31076793 -0.11284144 505.32463951 -0.11141556 512.3385849 -0.12383652 C570.29314568 -0.21685742 626.18863397 3.77303991 681.58360291 22.26069641 C683.13362 22.77672424 683.13362 22.77672424 684.71495056 23.30317688 C748.82785886 44.91596775 810.27344791 82.44921597 854.58360291 134.26069641 C855.36219666 135.15014954 856.14079041 136.03960266 856.94297791 136.95600891 C875.42684933 158.22699185 891.62358289 181.79822639 905.58360291 206.26069641 C905.96645447 206.92633606 906.34930603 207.59197571 906.74375916 208.27778625 C941.62849387 269.14379646 961.91980874 336.40642667 967.58360291 406.26069641 C967.67133972 407.33335251 967.75907654 408.40600861 967.84947205 409.51116943 C968.84987025 423.83825853 968.74829856 438.18440227 968.75085998 452.53865123 C968.75157933 454.8122848 968.75373019 457.08591263 968.75635719 459.35954475 C968.76557294 467.3545125 968.76969768 475.34946376 968.76890564 483.34443665 C968.76830898 490.69170748 968.77878908 498.03890393 968.7946493 505.38615602 C968.8079266 511.77424191 968.81308114 518.16230415 968.81245023 524.55040365 C968.81220064 528.32951681 968.81473898 532.108564 968.82562828 535.88766289 C968.86803406 551.74206458 968.61140756 567.53060056 967.67857361 583.36054993 C967.63862223 584.04823263 967.59867085 584.73591533 967.55750883 585.44443691 C962.77945821 665.80162482 937.28005775 749.59624356 886.98350525 813.47993469 C885.59259349 815.24925984 884.2211201 817.03220172 882.85313416 818.81929016 C880.14544651 822.33982241 877.37982248 825.81018901 874.58360291 829.26069641 C874.14628845 829.80387512 873.708974 830.34705383 873.25840759 830.9066925 C865.56966514 840.3647991 857.04784955 849.0047772 848.45860291 857.63569641 C847.90574615 858.19382019 847.3528894 858.75194397 846.78327942 859.32698059 C839.71831517 866.44390947 832.47268275 873.04721535 824.58360291 879.26069641 C823.34072331 880.27388005 822.09958376 881.28920562 820.86094666 882.30757141 C754.49103999 936.23068194 673.81155955 968.87044847 589.39610291 980.51069641 C588.32005798 980.66175842 587.24401306 980.81282043 586.13536072 980.96846008 C582.29077522 981.46601118 578.44030239 981.87163544 574.58360291 982.26069641 C573.38272647 982.38457169 573.38272647 982.38457169 572.15758991 982.51094949 C547.14873562 984.96722825 522.02693098 984.60886752 496.92648673 984.65407717 C490.90231841 984.66675404 484.87818554 984.68850933 478.85404223 984.70956161 C462.00669168 984.76771855 445.159313 984.80302538 428.31189418 984.83418825 C423.74551933 984.84265535 419.17914564 984.85166216 414.61277199 984.86074615 C386.20227495 984.91701083 357.79177172 984.96560283 329.38123322 984.99489307 C322.8267821 985.0017498 316.27233112 985.00872971 309.71788025 985.01582336 C308.90371185 985.01669594 308.08954345 985.01756852 307.25070328 985.01846754 C280.79705386 985.04710183 254.34371838 985.11663483 227.89022044 985.20903199 C200.63628623 985.30405067 173.38251893 985.36344623 146.12841522 985.37594532 C142.28032226 985.37771414 138.4322296 985.37986107 134.58413696 985.38222313 C133.82693213 985.38267178 133.06972731 985.38312043 132.28957688 985.38358268 C120.11992401 985.39178098 107.95067884 985.43696024 95.78117719 985.49577119 C83.56056868 985.5539578 71.34042407 985.57164685 59.11969495 985.54823796 C52.50311634 985.536652 45.88755258 985.54404332 39.27108955 985.59887314 C33.21257352 985.64866751 27.15626326 985.64754195 21.09770364 985.60615882 C18.90853884 985.60012833 16.7192263 985.61264731 14.53030378 985.64576898 C-3.51755128 985.90221327 -3.51755128 985.90221327 -10.01071307 980.40929408 C-12.31705552 978.16240098 -14.37327479 975.74658268 -16.41639709 973.26069641 C-17.71041061 972.03258618 -19.01875301 970.81896137 -20.35389709 969.63569641 C-31.05898903 958.70758173 -39.52423211 945.85447617 -46.41639709 932.26069641 C-46.97971741 931.1508136 -47.54303772 930.04093079 -48.12342834 928.89741516 C-56.7682045 910.97318309 -61.80313504 891.17838142 -62.41639709 871.26069641 C-62.45635803 870.32870422 -62.49631897 869.39671204 -62.53749084 868.43647766 C-63.4116465 830.74494254 -48.46143391 792.56268385 -22.91639709 764.94819641 C-22.08035423 764.10495833 -21.24431136 763.26172025 -20.38293386 762.39292949 C-18.41095408 760.36983118 -16.74947674 758.39130419 -15.01605868 756.13163382 C-11.06519824 751.16183855 -7.2702287 747.27903524 -0.8222146 746.15886486 C4.86423919 745.58614968 10.54496682 745.70429743 16.25175476 745.79986572 C18.46004728 745.79264371 20.66832774 745.78014105 22.87656426 745.76283556 C28.92667137 745.73057096 34.97429656 745.77278139 41.02415872 745.82734311 C46.88472099 745.86838001 52.74495226 745.85277534 58.60560084 745.83852138 C70.59369408 745.81125073 82.58105568 745.83920493 94.56900787 745.89843559 C106.44919797 745.95686116 118.32900368 745.98896817 130.20934296 745.98680305 C131.31958348 745.98661391 131.31958348 745.98661391 132.45225311 745.98642094 C136.2119912 745.98562395 139.97172894 745.9843285 143.7314668 745.98282034 C170.35501851 745.97282996 196.97823735 746.016112 223.60166931 746.0929718 C249.40146867 746.16724349 275.20119169 746.2251061 301.00108337 746.25508118 C301.79501956 746.25601462 302.58895576 746.25694807 303.40695062 746.25790981 C321.55744125 746.27915089 339.7079336 746.29503821 357.85843277 746.30673313 C359.40130119 746.30774502 360.94416961 746.30875885 362.48703803 746.30977463 C364.02403244 746.31078184 365.56102686 746.31178835 367.09802127 746.31279415 C367.85658218 746.31329174 368.6151431 746.31378933 369.39669071 746.31430201 C373.20202927 746.31677866 377.00736786 746.31914427 380.81270662 746.32129819 C398.65791475 746.33155344 416.50296439 746.35686738 434.34810135 746.40910847 C445.55435992 746.44179478 456.76061109 746.46500097 467.9669061 746.48087239 C475.65315594 746.49250181 483.33922209 746.5164769 491.02540331 746.55056005 C495.72063158 746.56811184 500.41580991 746.57283417 505.11106816 746.57401354 C507.23899676 746.57703673 509.3669265 746.58511123 511.49481091 746.59915542 C530.5826127 746.72045738 549.43893781 744.88045296 568.14610291 741.01069641 C569.1680072 740.80090149 570.1899115 740.59110657 571.24278259 740.37495422 C622.11453491 729.52419265 670.66191751 702.79311762 699.43125916 658.46406555 C714.79365238 634.21955468 724.10145986 607.92459955 728.33360291 579.57319641 C728.44937683 578.8036261 728.56515076 578.03405579 728.68443298 577.24116516 C730.98492587 560.27874768 730.78431377 543.02387325 730.85704041 525.94429016 C730.86236408 524.75530687 730.86768776 523.56632359 730.87317276 522.3413105 C730.89971648 516.03978756 730.9191445 509.73828309 730.93370056 503.4367218 C730.94697205 498.3043764 730.97472803 493.17243491 731.01573181 488.04023743 C731.38436115 446.39200533 731.38436115 446.39200533 725.58360291 405.26069641 C725.3101001 403.99677567 725.03659729 402.73285492 724.75480652 401.43063354 C715.74458351 360.58602452 699.54049763 322.8651386 670.58360291 292.26069641 C669.81532166 291.4395636 669.04704041 290.61843079 668.25547791 289.77241516 C644.55487721 265.19259864 611.70319423 249.63032034 578.64610291 242.51069641 C577.7304657 242.31177795 576.81482849 242.1128595 575.8714447 241.90791321 C558.69788915 238.43626652 541.54599974 237.96739678 524.09092712 238 C521.76993119 237.99697328 519.44893624 237.9930812 517.12794304 237.98840743 C510.79985046 237.97818619 504.4718149 237.98029416 498.14371777 237.98458803 C492.00423078 237.9877932 485.86475281 237.9796289 479.72527045 237.97282777 C465.63301777 237.95764399 451.54078315 237.95587679 437.448524 237.9583508 C426.56384025 237.96018808 415.67916238 237.95841476 404.79447937 237.95412636 C403.22711273 237.95352394 401.65974609 237.95292274 400.09237945 237.95232276 C397.73013786 237.95141544 395.36789627 237.95050677 393.00565469 237.9495904 C371.06391458 237.9411697 349.12217668 237.93681919 327.18043518 237.94099712 C326.35450117 237.9411535 325.52856716 237.94130988 324.67760484 237.94147099 C320.49204113 237.9422767 316.30647744 237.94312247 312.12091374 237.94398429 C311.28973886 237.94415538 310.45856397 237.94432647 309.60220197 237.94450274 C307.92136909 237.9448494 306.2405362 237.94519793 304.55970332 237.94554833 C278.40164089 237.95090638 252.24361217 237.94296908 226.08555603 237.92451477 C196.65538921 237.90377601 167.22524327 237.89307542 137.79506874 237.89709026 C134.65428798 237.89748557 131.51350721 237.89784712 128.37272644 237.89818764 C127.59946041 237.89827837 126.82619439 237.8983691 126.02949606 237.89846258 C114.38360277 237.89962594 102.73773065 237.89300037 91.09184265 237.88237572 C77.84186507 237.87029952 64.59193396 237.86879278 51.34195566 237.88116588 C44.58719729 237.88719222 37.83253502 237.88817772 31.07778168 237.87616348 C24.8847389 237.8652766 18.69186231 237.86844145 12.49882722 237.88242517 C10.26825093 237.88506431 8.0376615 237.88273042 5.80709815 237.8746893 C-10.59558029 237.81970019 -27.23954984 238.40658488 -42.85389709 244.01069641 C-43.58850159 244.26601135 -44.32310608 244.52132629 -45.07997131 244.78437805 C-54.51374192 248.20254554 -62.64177064 253.01501068 -69.89295959 259.97554016 C-71.41639709 261.26069641 -71.41639709 261.26069641 -73.41639709 261.26069641 C-73.68194397 261.84335266 -73.94749084 262.42600891 -74.22108459 263.02632141 C-75.45176364 265.32680642 -76.84299922 267.03581516 -78.54139709 269.01069641 C-93.76149296 288.39328196 -96.73720851 312.47636561 -96.67811012 336.36647606 C-96.68130386 338.06264139 -96.68536942 339.75880526 -96.6902194 341.45496666 C-96.70099405 346.09918068 -96.69946762 350.74332006 -96.69586869 355.38754214 C-96.69415676 360.44627173 -96.70403385 365.50498113 -96.71242273 370.56370223 C-96.72552844 379.42392269 -96.73127952 388.2841241 -96.73218346 397.14435387 C-96.73356104 410.31913192 -96.74635395 423.4938817 -96.7614712 436.66865027 C-96.78657977 458.83206384 -96.80246694 480.99547679 -96.81305313 503.15890121 C-96.82356232 525.10202422 -96.83819497 547.04513819 -96.85833359 568.98825455 C-96.85926956 570.01115408 -96.85926956 570.01115408 -96.86022445 571.05471825 C-96.86592591 577.28329468 -96.87167805 583.51187106 -96.87749097 589.74044739 C-96.89193945 605.22271447 -96.90575256 620.70498209 -96.91913414 636.18725014 C-96.91974396 636.89221176 -96.92035378 637.59717339 -96.92098208 638.32349749 C-96.95057751 672.60041202 -96.97285189 706.87733079 -96.99452209 741.1542511 C-97.00204448 753.04636133 -97.00959926 764.93847154 -97.01728821 776.83058167 C-97.01776506 777.56815005 -97.01824191 778.30571844 -97.0187332 779.06563739 C-97.04095283 813.36525859 -97.06837948 847.66487506 -97.09714592 881.96449133 C-97.0990138 884.19175677 -97.10087942 886.41902222 -97.1027446 888.64628766 C-97.11510896 903.40672198 -97.127563 918.16715622 -97.14007708 932.92759041 C-97.16497534 962.29618736 -97.18934679 991.66478474 -97.21335621 1021.03338243 C-97.21449956 1022.43193302 -97.21564327 1023.83048361 -97.21678736 1025.22903419 C-97.25201924 1068.2996757 -97.28487331 1111.37031852 -97.31523132 1154.44096375 C-97.31650457 1156.24540963 -97.31650457 1156.24540963 -97.31780354 1158.08630897 C-97.35214827 1206.81110378 -97.38395346 1255.53590031 -97.41639709 1304.26069641 C-175.62639709 1304.26069641 -253.83639709 1304.26069641 -334.41639709 1304.26069641 C-334.47678944 1188.57250068 -334.47678944 1188.57250068 -334.49334717 1152.7681427 C-334.49393917 1151.49121078 -334.49453117 1150.21427885 -334.49514111 1148.89865202 C-334.51502372 1105.89608423 -334.53077423 1062.89351595 -334.54342651 1019.89094543 C-334.54384487 1018.47285455 -334.54426322 1017.05476366 -334.54468158 1015.63667277 C-334.55345098 985.86590853 -334.56160098 956.09514414 -334.56903613 926.32437953 C-334.57277211 911.36795443 -334.57662702 896.41152935 -334.58059442 881.4551043 C-334.58119217 879.19908434 -334.58178652 876.94306437 -334.58238074 874.6870444 C-334.59155296 839.97683116 -334.60326475 805.26662107 -334.62239075 770.55641174 C-334.62280144 769.81098304 -334.62321214 769.06555434 -334.62363528 768.2975369 C-334.63027181 756.28019676 -334.63712286 744.26285674 -334.64400242 732.24551674 C-334.66383163 697.60173566 -334.68205582 662.95795703 -334.68981647 628.31417084 C-334.68997708 627.60066624 -334.69013769 626.88716165 -334.69030316 626.1520357 C-334.69380171 610.48304403 -334.69648569 594.81405233 -334.69840004 579.14506039 C-334.69918483 572.83890458 -334.7000867 566.5327488 -334.70102882 560.22659302 C-334.70112911 559.53644267 -334.70122939 558.84629232 -334.70133271 558.13522833 C-334.70461362 535.95548864 -334.71739807 513.7757671 -334.73524372 491.59603473 C-334.75370062 468.60039363 -334.76142462 445.60476908 -334.75690123 422.60911906 C-334.75462718 409.36953984 -334.76063365 396.13002635 -334.77878972 382.89045906 C-334.79011238 374.02448738 -334.79033724 365.15855831 -334.78189254 356.29258359 C-334.7774015 351.25495277 -334.77739761 346.21744546 -334.79104664 341.17982835 C-335.0005063 258.92143847 -316.56024998 182.95085611 -263.41639709 118.26069641 C-262.98633362 117.72766907 -262.55627014 117.19464172 -262.11317444 116.64546204 C-248.74680464 100.12556556 -233.55005274 84.8422369 -216.41639709 72.26069641 C-215.36444995 71.43605607 -214.31627599 70.60658058 -213.27186584 69.77241516 C-168.26827471 33.93802723 -112.11620699 13.48190525 -55.85389709 3.94819641 C-54.55657654 3.72740417 -54.55657654 3.72740417 -53.23304749 3.50215149 C-35.50215096 0.69249899 -17.92612793 -0.03227105 0 0 Z M54.58360291 793.26069641 C53.59875916 793.75311829 52.61391541 794.24554016 51.59922791 794.75288391 C33.31551464 804.65261467 19.4554805 821.49276204 13.22813416 841.34272766 C6.81143058 863.63363069 9.69979341 884.99113677 20.70860291 905.32319641 C32.25621154 924.28532165 50.74178911 937.33555992 72.14610291 942.56929016 C93.40800089 946.84583101 114.70961028 943.15849393 132.95860291 931.38569641 C150.2116212 919.1445991 163.6252039 901.42668116 167.58360291 880.26069641 C171.40514821 857.30412782 166.5137676 835.99545494 153.06358337 817.02998352 C139.98928754 799.55174167 121.2291919 789.26542252 99.98204041 785.64741516 C84.21269015 783.85297186 68.80833612 786.1483298 54.58360291 793.26069641 Z " fill="#FFFFFF" transform="translate(622.4163970947266,653.7393035888672)"/>
<path d="M0 0 C1.86517565 -0.00296769 3.73034917 -0.00769167 5.59551656 -0.01398599 C10.68111112 -0.02614262 15.76638066 -0.0136628 20.85195074 0.00312654 C26.39947057 0.01696217 31.94696015 0.00736149 37.49448657 0.00081658 C47.2036402 -0.00745042 56.91269546 -0.00095125 66.62183762 0.01536942 C81.05881713 0.03956972 95.49575041 0.04071376 109.93274363 0.03720146 C134.22134102 0.03158269 158.50989646 0.04525573 182.79848099 0.06927109 C206.84112125 0.09298631 230.88374354 0.10837652 254.92639542 0.11268234 C255.67393862 0.11281999 256.42148183 0.11295764 257.19167786 0.11309946 C264.01965007 0.11435231 270.8476223 0.11550307 277.67559455 0.11653135 C294.64677473 0.11908846 311.6179545 0.12292545 328.58913422 0.12763214 C329.74819162 0.12795205 329.74819162 0.12795205 330.93066433 0.12827841 C368.4894008 0.13875652 406.04812543 0.16398348 443.60685349 0.1904335 C456.63541785 0.19960041 469.66398225 0.20870198 482.69254684 0.21753311 C483.90464832 0.21835481 483.90464832 0.21835481 485.14123669 0.2191931 C522.72860228 0.24458435 560.31596992 0.2594766 597.90334184 0.27167229 C600.34449489 0.27246454 602.78564794 0.27326132 605.22680098 0.27405901 C621.40488045 0.27933828 637.58295998 0.28443685 653.76103955 0.28941445 C685.94952205 0.29931964 718.13800416 0.31028633 750.32648606 0.32198263 C751.85927567 0.3225396 753.39206528 0.32309581 754.92485489 0.32365129 C802.12397205 0.34076016 849.32308514 0.36265819 896.52219772 0.38959122 C898.49936832 0.39071656 898.49936832 0.39071656 900.51648175 0.39186465 C953.90175073 0.42232328 1007.28701655 0.45790066 1060.67228317 0.49219131 C1060.67228317 78.70219131 1060.67228317 156.91219131 1060.67228317 237.49219131 C748.16228317 237.49219131 435.65228317 237.49219131 113.67228317 237.49219131 C113.77540817 360.70594131 113.87853317 483.91969131 113.98478317 610.86719131 C114.0221257 669.27598282 114.0221257 669.27598282 114.06022263 728.86474991 C114.09677663 763.69734799 114.09677663 763.69734799 114.13729477 798.52994156 C114.15645275 815.09727986 114.16573492 831.66459524 114.17023335 848.23194298 C114.17506491 865.13077498 114.1910669 882.0295693 114.21776701 898.92838106 C114.23330957 908.97220161 114.24082442 919.01594804 114.23608485 929.05977995 C114.23376746 935.69902908 114.24233418 942.3382075 114.25961865 948.97743437 C114.26914421 952.75411576 114.27408 956.53064079 114.26567686 960.30732846 C114.08478341 987.25054765 114.08478341 987.25054765 120.35978317 1013.30469131 C120.61542038 1013.99715958 120.87105759 1014.68962784 121.13444138 1015.40307999 C128.50045172 1034.47127666 141.98572964 1048.74487795 160.40665817 1057.27344131 C172.53326574 1062.55798657 185.8603521 1065.60943457 199.10731405 1065.62280184 C200.36725123 1065.62648255 201.62718842 1065.63016326 202.92530552 1065.63395551 C204.31336896 1065.63301001 205.70143234 1065.63197367 207.08949566 1065.63085651 C208.57796638 1065.63330538 210.06643644 1065.63618968 211.55490556 1065.6394693 C215.65506675 1065.64723765 219.75521068 1065.64881106 223.85537832 1065.64939671 C228.31219229 1065.6511256 232.76899715 1065.65861088 237.22580582 1065.66537327 C245.04006261 1065.67643378 252.85431616 1065.68380342 260.6685791 1065.6887722 C272.28813906 1065.69617727 283.90768775 1065.70926021 295.52724107 1065.72351796 C315.07230912 1065.7473393 334.61737918 1065.76653894 354.16245461 1065.78311729 C373.51844113 1065.79955032 392.87442392 1065.81802972 412.23040581 1065.83925056 C413.43327363 1065.84056817 414.63614146 1065.84188578 415.87545983 1065.84324331 C421.98405614 1065.84994527 428.0926524 1065.85668387 434.20124865 1065.86343657 C477.48415171 1065.91121742 520.76705827 1065.95439733 564.04996872 1065.99487686 C606.10238016 1066.0342161 648.1547887 1066.07563605 690.20719528 1066.11987686 C691.50311513 1066.12123939 692.79903498 1066.12260192 694.13422513 1066.12400574 C707.14821896 1066.13769095 720.16221275 1066.1514185 733.17620651 1066.16517708 C759.6879244 1066.19320468 786.19964257 1066.22094963 812.71136093 1066.24852371 C814.53986596 1066.25042601 814.53986596 1066.25042601 816.40531049 1066.25236674 C897.82763002 1066.33704264 979.24995613 1066.41512949 1060.67228317 1066.49219131 C1060.69507314 1096.66756676 1060.71278114 1126.8429419 1060.7233485 1157.01832404 C1060.72459928 1160.57707734 1060.72589359 1164.13583062 1060.72721481 1167.69458389 C1060.72747712 1168.40309728 1060.72773943 1169.11161067 1060.72800969 1169.84159417 C1060.73236647 1181.3287055 1060.74025406 1192.81581184 1060.74943597 1204.30292021 C1060.7587723 1216.08104398 1060.76433874 1227.85916513 1060.76637167 1239.63729244 C1060.76767922 1246.25654245 1060.7707679 1252.87578115 1060.77801323 1259.49502754 C1060.7847693 1265.71733645 1060.78690098 1271.93962931 1060.78539085 1278.16194153 C1060.78566737 1280.4529663 1060.78767493 1282.74399158 1060.79148865 1285.0350132 C1060.79641944 1288.14819568 1060.79528374 1291.26131654 1060.79253769 1294.37450027 C1060.79545053 1295.29374218 1060.79836337 1296.21298408 1060.80136448 1297.1600818 C1060.78640438 1303.3780701 1060.78640438 1303.3780701 1059.67228317 1304.49219131 C1057.80312068 1304.59097341 1055.93016634 1304.61818036 1054.0583955 1304.61869115 C1052.21414337 1304.62283076 1052.21414337 1304.62283076 1050.33263361 1304.62705401 C1048.94778851 1304.62506565 1047.56294353 1304.62298616 1046.17809868 1304.62082577 C1044.71673006 1304.6221706 1043.25536179 1304.62395345 1041.79399419 1304.626138 C1037.74092122 1304.63090086 1033.68787051 1304.62935579 1029.63479639 1304.62686023 C1025.23906377 1304.62523619 1020.84333609 1304.62936046 1016.44760501 1304.63276941 C1008.73047536 1304.63793985 1001.01335199 1304.63933777 993.29622078 1304.63831329 C981.81955364 1304.63679343 970.34289348 1304.64093904 958.8662277 1304.64618792 C937.17259157 1304.65588156 915.4789578 1304.65867299 893.78531976 1304.65924498 C877.02355881 1304.65970403 860.26179879 1304.66175984 843.50003815 1304.6649456 C838.67966521 1304.66584314 833.85929227 1304.66673295 829.03891933 1304.66762048 C827.24143352 1304.66795205 827.24143352 1304.66795205 825.40763486 1304.66829032 C791.67432357 1304.67444933 757.94101261 1304.67839044 724.20770073 1304.67794704 C722.93460496 1304.67793147 721.6615092 1304.67791589 720.34983477 1304.67789984 C713.89697165 1304.67781673 707.44410853 1304.67771769 700.9912454 1304.67761513 C699.70964902 1304.67759518 698.42805263 1304.67757524 697.10762 1304.67755469 C694.51590884 1304.67751425 691.92419768 1304.67747245 689.33248652 1304.6774293 C649.05935522 1304.67681729 608.78623236 1304.68430728 568.51310349 1304.69800186 C523.27852693 1304.71337715 478.04395593 1304.72196708 432.8093766 1304.72103864 C427.98083043 1304.72096401 423.15228427 1304.7209153 418.3237381 1304.72088432 C416.54034963 1304.72086684 416.54034963 1304.72086684 414.72093312 1304.72084901 C395.6154569 1304.72081828 376.50998801 1304.72719555 357.40451396 1304.73581659 C338.178045 1304.74431229 318.95158673 1304.74526817 299.72511692 1304.73870727 C288.31524593 1304.73502327 276.90540747 1304.73680931 265.49553995 1304.74664961 C257.85561351 1304.75267918 250.21571047 1304.75132128 242.57578507 1304.74417911 C238.2343525 1304.74032231 233.89298257 1304.73944945 229.55155458 1304.74763646 C205.00712936 1304.79090402 180.53018959 1304.35075337 156.23478317 1300.42969131 C155.59260849 1300.32748276 154.95043381 1300.2252742 154.28879929 1300.11996841 C118.14203857 1294.29387134 82.49469137 1283.73427001 49.67228317 1267.49219131 C48.86887497 1267.10660049 48.06546677 1266.72100967 47.23771286 1266.32373428 C26.69635404 1256.45023962 7.10879221 1243.13525446 -10.32771683 1228.49219131 C-11.41842717 1227.60363564 -12.50958572 1226.71562992 -13.60115433 1225.82812881 C-27.75658972 1214.16171799 -41.18512619 1201.08134778 -52.32771683 1186.49219131 C-53.41022447 1185.13502267 -54.495072 1183.77971869 -55.58162308 1182.42578506 C-63.49797145 1172.50249038 -70.75508279 1162.35285398 -77.32771683 1151.49219131 C-77.80418655 1150.70537979 -78.28065628 1149.91856827 -78.77156448 1149.10791397 C-108.42533685 1099.65890509 -123.52666621 1044.72644117 -123.4619379 986.92403698 C-123.4638953 985.38346304 -123.46628583 983.84288961 -123.46906587 982.30231693 C-123.47542044 978.08532286 -123.47563117 973.86834796 -123.47478847 969.65135002 C-123.47495887 965.0571642 -123.48087503 960.46298505 -123.48602933 955.86880261 C-123.49533051 946.76428055 -123.49927316 937.65976336 -123.50154829 928.55523714 C-123.50451676 917.64677641 -123.5132178 906.73832209 -123.52196257 895.82986473 C-123.54277932 869.46971176 -123.55327156 843.10955768 -123.56209218 816.7493984 C-123.56630178 804.27640746 -123.57152327 791.80341699 -123.57677671 779.33042645 C-123.59438243 737.29145808 -123.60943497 695.25248936 -123.61674695 653.21351784 C-123.61733091 649.86486896 -123.61792817 646.51622007 -123.61852456 643.16757119 C-123.61864268 642.50332843 -123.6187608 641.83908566 -123.6188825 641.15471433 C-123.62007984 634.42537736 -123.62128861 627.69604039 -123.62251503 620.96670342 C-123.62276027 619.61748705 -123.62300412 618.26827068 -123.6232466 616.91905431 C-123.63103579 573.58998502 -123.65342049 530.26094283 -123.68592303 486.93188538 C-123.72079123 440.43353793 -123.74140021 393.9352024 -123.74474114 347.43684059 C-123.74515867 342.4055529 -123.74563823 337.37426521 -123.74616432 332.34297752 C-123.74628751 331.10416136 -123.74641071 329.86534519 -123.74653763 328.58898914 C-123.74886838 308.6645256 -123.76452104 288.74009389 -123.78500617 268.81564169 C-123.80527224 248.78644277 -123.81073769 228.75728205 -123.80123553 208.72807478 C-123.7960241 196.83450658 -123.80188136 184.94106562 -123.82377021 173.04751575 C-123.83729878 165.09453406 -123.83618312 157.14163976 -123.82336825 149.18865715 C-123.81648551 144.6628377 -123.81575418 140.13726115 -123.83292834 135.6114636 C-123.96108524 99.58625499 -118.93116503 68.89823387 -95.32771683 40.49219131 C-94.6548262 39.64269913 -93.98193558 38.79320694 -93.28865433 37.91797256 C-82.67418811 25.19290786 -68.46902387 15.9231978 -53.32771683 9.49219131 C-52.20236526 9.01266006 -51.0770137 8.53312881 -49.91756058 8.03906631 C-33.78131703 1.77329689 -17.18078659 -0.11095078 0 0 Z " fill="#FFFFFF" transform="translate(3486.3277168273926,653.5078086853027)"/>
<path d="M0 0 C0.76634766 0.1129541 1.53269531 0.2259082 2.32226562 0.34228516 C35.81211878 5.5411464 67.64307018 19.77706748 94 41 C94.76207764 41.60980713 94.76207764 41.60980713 95.53955078 42.23193359 C109.32145009 53.32943223 121.60345033 65.66542367 132 80 C132.6175415 80.84304688 132.6175415 80.84304688 133.24755859 81.703125 C165.40087204 126.1192665 175.9949587 180.4644749 168.29296875 234.203125 C161.37389013 277.26627137 139.45644758 315.34218748 109 346 C108.34 346.33 107.68 346.66 107 347 C107.40943609 350.43926312 107.97768563 352.95626383 109.5625 356.0625 C111.02737394 359.05593804 111.28857572 360.72947521 111 364 C109.35 364 107.7 364 106 364 C105.87882812 363.38511719 105.75765625 362.77023437 105.6328125 362.13671875 C105.46523438 361.32847656 105.29765625 360.52023437 105.125 359.6875 C104.96257812 358.88699219 104.80015625 358.08648438 104.6328125 357.26171875 C104.05521001 354.74698882 104.05521001 354.74698882 102 352 C101.30777344 352.60585937 100.61554688 353.21171875 99.90234375 353.8359375 C56.84444544 390.71029047 3.34960101 404.25068674 -52.39697266 400.7890625 C-94.35569198 397.18029824 -135.75240607 377.94172538 -166.46875 349.34375 C-168.68482777 347.29182614 -170.94505634 345.32533694 -173.25 343.375 C-177.24020478 339.88357082 -180.62649397 336.08337506 -184 332 C-184.41733398 331.51096191 -184.83466797 331.02192383 -185.26464844 330.51806641 C-220.05226603 289.70337745 -236.56136983 236.13156298 -232.3125 182.8125 C-228.32706764 135.10288547 -207.84555857 92.43021271 -175 58 C-174.20078125 57.14792969 -173.4015625 56.29585937 -172.578125 55.41796875 C-128.87753235 10.07503356 -61.46045412 -9.22427222 0 0 Z " fill="#FFFFFF" transform="translate(4292,1103)"/>
<path d="M0 0 C1.85205055 0.09871859 3.70410133 0.19743267 5.55615234 0.29614258 C102.46171917 5.64399174 197.41903071 22.53386442 374.19683838 72.70623779 C377.2243275 73.75628997 380.25947197 74.78386116 383.29296875 75.81640625 C428.50277139 91.3899547 473.17695862 111.4288556 514.62890625 135.23828125 C518.86003692 137.66692223 523.1257707 140.01786565 527.41992188 142.33276367 C540.71347629 149.51263954 553.5728637 157.40377167 566.42913818 165.33013916 C568.04625466 166.32648312 569.66493382 167.32028941 571.28369141 168.31396484 C614.5921102 194.92701973 656.22365194 224.13237333 693.4765625 258.84423828 C695.28961483 260.5278636 697.11354633 262.19928761 698.9375 263.87109375 C707.54340859 271.79984004 715.70439346 280.01335365 723.57470703 288.671875 C725.00895235 290.24751206 726.45323164 291.81304505 727.90234375 293.375 C733.5634999 299.51591515 738.89808171 305.86263438 744.125 312.375 C745.04889449 313.50698786 745.9734029 314.63847487 746.8984375 315.76953125 C772.23338869 346.89532842 793.61915849 381.21590908 811.11669922 417.30957031 C812.18788222 419.50380958 813.28322689 421.68508674 814.37890625 423.8671875 C840.25044859 476.02670491 866.82294202 547.23001949 865.125 606.375 C862.18338731 604.90419366 862.07341968 602.98460272 860.98046875 599.91796875 C860.55781738 598.75692627 860.13516602 597.59588379 859.69970703 596.3996582 C859.36208344 595.46339096 859.36208344 595.46339096 859.01763916 594.50820923 C853.28277985 578.68385949 846.46469619 563.52524904 839.125 548.375 C838.60180176 547.2809082 838.07860352 546.18681641 837.53955078 545.05957031 C820.62922548 509.76341611 799.56374696 475.96882513 775.125 445.375 C774.63708984 444.76237305 774.14917969 444.14974609 773.64648438 443.51855469 C755.2517769 420.48508226 735.65791749 397.14755179 713.08984375 378.0625 C710.6654227 375.98029345 708.34149968 373.79997793 706 371.625 C700.79567822 366.87946141 695.35512749 362.52860592 689.78515625 358.22265625 C687.3294946 356.32334006 684.90255417 354.3948687 682.49609375 352.43359375 C673.33289038 344.96926879 663.87430939 338.05378907 654.125 331.375 C653.50689453 330.95009277 652.88878906 330.52518555 652.25195312 330.08740234 C611.38157837 302.09718641 566.94235138 279.63818588 521.39459229 260.33728027 C519.02137034 259.33106225 516.65005045 258.32044493 514.27880859 257.30957031 C434.15242456 223.21333012 352.17811538 201.51389275 -17.90991211 143.84106445 C-19.04739395 143.75597626 -20.18487579 143.67088806 -21.35682678 143.58322144 C-23.50468184 143.42590518 -25.65306234 143.27553973 -27.80198669 143.13357544 C-35.39525817 142.58246146 -41.25656853 141.32097445 -47.875 137.375 C-49.00679687 136.73433594 -50.13859375 136.09367188 -51.3046875 135.43359375 C-68.53187616 125.29161236 -80.95583687 109.77370816 -86.43701172 90.38720703 C-91.12831488 71.46715209 -87.95314073 51.68701401 -78.21875 34.9609375 C-74.53943902 29.07086812 -69.82803385 24.20045571 -64.875 19.375 C-64.29234375 18.78332031 -63.7096875 18.19164062 -63.109375 17.58203125 C-45.7509118 1.23176162 -22.65268506 -1.29859327 0 0 Z " fill="#FFFFFF" transform="translate(754.875,355.625)"/>
<path d="M0 0 C122.76 0 245.52 0 372 0 C370.42427792 3.15144415 368.94421586 5.52627678 366.875 8.3125 C336.22238397 51.9384224 333.21463396 113.64965802 341.75 164.625 C346.29088978 190.13768779 354.62512978 215.28430383 370.53125 236.0234375 C372 238 372 238 372 239 C249.24 239 126.48 239 0 239 C-5.82927649 207.52190695 -5.82927649 207.52190695 -7.1875 196.375 C-7.34839111 195.07546387 -7.50928223 193.77592773 -7.67504883 192.43701172 C-14.21148624 138.8011126 -13.38147848 84.1961827 -5.5 30.75 C-5.39844604 30.06005951 -5.29689209 29.37011902 -5.19226074 28.65927124 C-3.7578263 19.02920515 -1.91328882 9.56644412 0 0 Z " fill="#FFFFFF" transform="translate(3671,1186)"/>
<path d="M0 0 C1.75056209 1.51732852 3.47978996 3.05959913 5.1875 4.625 C6.10015625 5.45644531 7.0128125 6.28789062 7.953125 7.14453125 C28.95151457 27.17511795 40.29105482 53.81126843 42.1875 82.625 C42.24679687 83.50929688 42.30609375 84.39359375 42.3671875 85.3046875 C42.95650673 104.7522221 37.53341744 123.27628967 29.1875 140.625 C28.65253906 141.7490625 28.11757813 142.873125 27.56640625 144.03125 C14.72131242 169.41340184 -7.9139964 188.55937123 -34.71508789 197.80273438 C-64.70441154 207.45395872 -95.76667413 205.24521828 -123.89868164 190.90600586 C-150.87588123 176.55125618 -169.77739507 152.55965514 -178.78125 123.44921875 C-187.89930044 89.63644836 -181.30693135 57.82947108 -164.13476562 27.82568359 C-161.44466778 23.34847865 -158.33615259 19.46123467 -154.8125 15.625 C-154.1525 14.82578125 -153.4925 14.0265625 -152.8125 13.203125 C-115.29159121 -31.21500968 -44.850624 -35.52524673 0 0 Z " fill="#FFFFFF" transform="translate(468.8125,341.375)"/>
<path d="M0 0 C14.99257617 13.9854814 24.28415018 31.67075958 30.25 51.0859375 C30.6109375 52.24609375 30.971875 53.40625 31.34375 54.6015625 C35.99101942 73.10457962 35.07815955 94.95388555 29.25 113.0859375 C28.93651611 114.08657227 28.93651611 114.08657227 28.61669922 115.10742188 C19.2335986 144.26180492 0.66708349 168.93037402 -26.64941406 183.30102539 C-53.64749864 197.01028276 -84.38602237 200.8979812 -113.51953125 191.609375 C-143.0879337 181.61024218 -166.69953441 161.41516794 -180.68896484 133.40478516 C-182.63722039 129.1469547 -184.19355753 124.77050837 -185.6875 120.3359375 C-185.96996582 119.49748291 -186.25243164 118.65902832 -186.54345703 117.79516602 C-189.94632772 107.08686815 -191.1211841 96.54208578 -191.0625 85.3359375 C-191.05686035 84.19777588 -191.0512207 83.05961426 -191.04541016 81.88696289 C-190.61608602 51.95966989 -177.63959345 23.27698742 -157.26953125 1.515625 C-113.1628427 -41.0182669 -45.09318068 -40.64378287 0 0 Z " fill="#FFFFFF" transform="translate(205.75,247.9140625)"/>
<path d="M0 0 C0.98097656 0.42925781 1.96195313 0.85851563 2.97265625 1.30078125 C29.06678297 13.50554408 48.99064658 36.11626912 59 63 C66.36462879 85.80902826 68.41102555 110.92106935 61 134 C60.78037598 134.68449219 60.56075195 135.36898437 60.33447266 136.07421875 C50.42642707 165.97365709 31.97271999 190.6486295 3.734375 205.24609375 C-12.72859896 213.43882261 -28.84493522 217.39555752 -47.25 217.3125 C-48.53471191 217.30758545 -49.81942383 217.3026709 -51.14306641 217.29760742 C-60.1485059 217.18622466 -68.32847445 216.57435915 -77 214 C-78.794375 213.50693359 -78.794375 213.50693359 -80.625 213.00390625 C-109.94833391 204.17636094 -132.63276504 184.23878141 -147.25 157.625 C-160.85225687 131.82613016 -163.05736089 100.74575051 -154.81640625 72.921875 C-146.64338491 47.02513312 -130.45943101 22.35911119 -107 8 C-106.13761719 7.43152344 -105.27523437 6.86304688 -104.38671875 6.27734375 C-73.48224064 -13.17153252 -33.05745567 -14.65876773 0 0 Z " fill="#FFFFFF" transform="translate(339,9)"/>
<path d="M0 0 C11.83960286 12.11709355 17.43783123 29.19209057 17.29516602 45.88793945 C16.63248722 63.59395462 9.45717558 78.60121488 -3.125 91.046875 C-3.64191406 91.59730469 -4.15882813 92.14773438 -4.69140625 92.71484375 C-15.63060359 103.36842236 -32.21313443 107.93237662 -47 108.484375 C-65.25117129 108.01377305 -81.74421261 100.66669368 -94.5 87.6171875 C-107.88636447 72.37663065 -111.09437321 55.49633461 -110.3203125 35.79003906 C-109.229859 20.47461967 -100.77452694 5.71603949 -89.40234375 -4.3671875 C-61.35440051 -26.46556702 -25.96000872 -23.86030213 0 0 Z " fill="#FFFFFF" transform="translate(579.125,175.953125)"/>
<path d="M0 0 C6.27 0 12.54 0 19 0 C22.68081456 8.71579472 25.48536984 17.63458628 28.25390625 26.66796875 C28.75969021 28.30909794 29.26571275 29.95015361 29.7719574 31.59114075 C30.83454169 35.03900244 31.89405671 38.48778836 32.95141602 41.93725586 C34.26747912 46.22980392 35.5912438 50.51992713 36.91733742 54.8093853 C53.73418954 109.24492041 53.73418954 109.24492041 59 131 C60.97578052 125.85070448 62.77526951 120.69551037 64.35546875 115.41015625 C64.80898907 113.91365946 65.26277872 112.41724427 65.71679688 110.92089844 C65.95519287 110.13259644 66.19358887 109.34429443 66.43920898 108.53210449 C77.48000285 72.09388254 89.49991377 35.96142231 102 0 C108.27 0 114.54 0 121 0 C135.9244123 43.54094599 149.86348769 87.59812571 162 132 C162.18361084 131.39381836 162.36722168 130.78763672 162.55639648 130.16308594 C169.60181702 106.99786145 177.17214793 84.00677447 184.72279358 61.00250244 C187.19668266 53.46159143 189.65627701 45.91615396 192.10546875 38.3671875 C192.42768906 37.37455902 192.74990936 36.38193054 193.08189392 35.35922241 C194.309828 31.57595346 195.53766423 27.79265733 196.76205444 24.00823975 C197.58719429 21.45810569 198.41450212 18.90868378 199.2421875 16.359375 C199.47894699 15.62524384 199.71570648 14.89111267 199.9596405 14.13473511 C201.51279261 9.35896464 203.23278462 4.71257434 205 0 C211.27 0 217.54 0 224 0 C221.90333362 7.98229957 219.47847404 15.77846355 216.80859375 23.5859375 C216.17252558 25.45988729 215.53645824 27.33383736 214.90041924 29.20779705 C214.21946794 31.21202438 213.53690893 33.21569736 212.85385132 35.21920776 C211.41551213 39.43814145 209.98135258 43.65848781 208.5480957 47.87915039 C208.17959645 48.96426706 208.17959645 48.96426706 207.80365276 50.07130527 C207.29816614 51.55981328 206.79269058 53.04832504 206.28722572 54.53684044 C205.50708552 56.83373576 204.72650166 59.13047995 203.94584656 61.42720032 C199.87896799 73.39489172 195.83425022 85.36998303 191.796875 97.34765625 C191.19650883 99.12834038 190.59613149 100.90902073 189.9957428 102.68969727 C187.64068981 109.67496562 185.28582732 116.66029748 182.93331909 123.64642334 C181.55189142 127.7486362 180.16910154 131.85038747 178.78533173 135.95181084 C178.27335685 137.47016078 177.76190983 138.98868882 177.25101471 140.50740242 C176.55237557 142.58407905 175.85196921 144.66015134 175.15112305 146.73608398 C174.75781296 147.90348618 174.36450287 149.07088837 173.95927429 150.27366638 C173 153 173 153 172 155 C165.07 155 158.14 155 151 155 C142.03548946 126.71647283 133.09955231 98.42434397 124.29827881 70.08953857 C123.52231184 67.59153285 122.74583098 65.09368669 121.96881104 62.5960083 C114.55635155 38.76059515 114.55635155 38.76059515 111.68701172 28.23510742 C111.20632141 26.05027291 111.20632141 26.05027291 110 25 C109.78609619 25.75764648 109.57219238 26.51529297 109.35180664 27.29589844 C102.3001018 52.10941621 94.34610826 76.60089475 86.26060486 101.09410095 C83.75970677 108.6750278 81.28524353 116.26415206 78.828125 123.859375 C78.50092468 124.86980362 78.17372437 125.88023224 77.83660889 126.92127991 C76.58486166 130.78734228 75.3332435 134.65343618 74.08679199 138.52120972 C73.2480215 141.12308228 72.40564556 143.72376131 71.5625 146.32421875 C71.31542297 147.09445374 71.06834595 147.86468872 70.81378174 148.65826416 C69.11373995 153.88626005 69.11373995 153.88626005 68 155 C66.5112814 155.08669432 65.018555 155.10703494 63.52734375 155.09765625 C62.62822266 155.09443359 61.72910156 155.09121094 60.80273438 155.08789062 C59.85720703 155.07951172 58.91167969 155.07113281 57.9375 155.0625 C56.98810547 155.05798828 56.03871094 155.05347656 55.06054688 155.04882812 C52.70696935 155.0370011 50.35351523 155.02052025 48 155 C41.69424406 135.05030807 35.39265656 115.09930418 29.09646606 95.14659119 C26.04559502 85.47869014 22.992586 75.81147048 19.93639946 66.14524841 C17.88922542 59.6696285 15.84490381 53.19311237 13.80273628 46.71591187 C12.59886039 42.89785658 11.3936737 39.08022679 10.1852417 35.26361084 C9.05102776 31.68126066 7.92042517 28.09779058 6.79253387 24.5134449 C6.18685704 22.59185012 5.57741886 20.67144214 4.96783447 18.75108337 C4.60413757 17.59290604 4.24044067 16.4347287 3.86572266 15.24145508 C3.55172516 14.24712967 3.23772766 13.25280426 2.91421509 12.22834778 C1.77249606 8.1966203 0.90899683 4.09048573 0 0 Z " fill="#FFFFFF" transform="translate(928,2138)"/>
<path d="M0 0 C8.58 0 17.16 0 26 0 C27.37671875 3.22394531 28.7534375 6.44789063 30.171875 9.76953125 C32.03022647 14.11762556 33.88992574 18.46514242 35.75 22.8125 C36.23285461 23.94110443 36.71570923 25.06970886 37.2131958 26.23251343 C42.51978929 38.62948783 47.83843553 51.01616509 53.375 63.3125 C61.31584928 80.97264026 68.66419486 98.90025974 75.97021484 116.83105469 C76.2912468 117.61684906 76.61227875 118.40264343 76.94303894 119.21224976 C77.56053359 120.72457 78.17594408 122.23774332 78.78901672 123.75186157 C79.98793837 127.12390151 79.98793837 127.12390151 82 130 C82.5559082 128.69240723 82.5559082 128.69240723 83.12304688 127.35839844 C90.50144111 110.0164824 97.96907948 92.72025613 105.65887451 75.51400757 C112.61274213 59.94885258 119.40669893 44.31551705 126.17456055 28.66870117 C130.33679499 19.05575564 134.55522447 9.48650312 139 0 C147.58 0 156.16 0 165 0 C165 51.15 165 102.3 165 155 C159.06 155 153.12 155 147 155 C147 110.45 147 65.9 147 20 C143.37 28.91 139.74 37.82 136 47 C129.6473396 61.96404451 129.6473396 61.96404451 127.34375 67.28515625 C127.08420532 67.88473648 126.82466064 68.48431671 126.55725098 69.10206604 C125.70561534 71.06838384 124.8529857 73.0342675 124 75 C123.69255859 75.7085614 123.38511719 76.4171228 123.06835938 77.14715576 C111.78952478 103.13191023 100.3994231 129.06797902 89 155 C83.39 155 77.78 155 72 155 C71.23837718 153.18056772 70.47675473 151.36113529 69.71513367 149.54170227 C69.02130179 147.88421905 68.32746409 146.22673826 67.63362122 144.56925964 C65.64436661 139.81722532 63.65522319 135.06514449 61.66625977 130.31298828 C57.57784079 120.54499314 53.48817014 110.77752754 49.39453125 101.01171875 C41.01876132 81.02677604 32.67670475 61.02839831 24.39233398 41.00537109 C24.05172943 40.18247589 23.71112488 39.35958069 23.36019897 38.51174927 C22.73049219 36.99017167 22.10116583 35.46843654 21.47232056 33.94650269 C21.18956268 33.26322906 20.90680481 32.57995544 20.61547852 31.87597656 C20.37442886 31.29285706 20.13337921 30.70973755 19.88502502 30.10894775 C18.60763811 27.06503127 17.3026036 24.03320939 16 21 C16.02978156 21.68152791 16.05956312 22.36305582 16.09024715 23.06523609 C16.81712028 40.06716126 17.13839555 57.02684835 17.09765625 74.04296875 C17.09578328 76.40334543 17.09436355 78.76372251 17.09336853 81.12409973 C17.08961239 87.23443745 17.07984419 93.34475009 17.06866455 99.45507812 C17.05829891 105.73111634 17.05383899 112.00715875 17.04882812 118.28320312 C17.03821316 130.52214623 17.02122366 142.761071 17 155 C11.39 155 5.78 155 0 155 C0 103.85 0 52.7 0 0 Z " fill="#FFFFFF" transform="translate(367,2138)"/>
<path d="M0 0 C19.614375 -0.0928125 19.614375 -0.0928125 39.625 -0.1875 C43.72631348 -0.21481201 47.82762695 -0.24212402 52.05322266 -0.27026367 C57.1315918 -0.28381348 57.1315918 -0.28381348 59.52255249 -0.28633118 C61.16279556 -0.29088363 62.80302976 -0.30131941 64.44320679 -0.31672668 C77.1661569 -0.43007873 90.05635104 -0.23293835 101.5625 5.9375 C102.49191406 6.42089844 103.42132812 6.90429688 104.37890625 7.40234375 C109.11346368 10.28823643 112.38941385 13.05899114 115.1875 17.875 C115.92033203 19.10863281 115.92033203 19.10863281 116.66796875 20.3671875 C121.37544245 29.67169563 121.4230169 41.05533667 119.34765625 51.18359375 C115.65663207 61.33787058 108.27731472 67.07200989 99 72 C99.9178125 72.4125 100.835625 72.825 101.78125 73.25 C112.92906232 78.42202578 120.30205168 83.70717209 125.1015625 95.48046875 C129.11696852 106.7410639 127.65249292 119.92237143 122.78125 130.6953125 C116.62758235 141.87447541 106.5947762 149.0276184 94.49745178 152.77526855 C84.41545743 155.43338858 74.71718388 155.38639862 64.35546875 155.29296875 C62.70072738 155.28854607 61.04598178 155.28549284 59.39123535 155.28381348 C53.32325867 155.26822179 47.25537242 155.2263386 41.1875 155.1875 C27.595625 155.125625 14.00375 155.06375 0 155 C0 103.85 0 52.7 0 0 Z M18 16 C18 32.17 18 48.34 18 65 C25.755 65.04125 33.51 65.0825 41.5 65.125 C45.1187207 65.15231201 45.1187207 65.15231201 48.81054688 65.18017578 C73.38844821 66.20530929 73.38844821 66.20530929 94.8671875 56.29296875 C100.20646008 50.42998761 101.54698995 44.99751714 101.36328125 37.13671875 C100.6485266 30.96523502 98.56432591 26.15331897 93.7578125 22.1171875 C84.12502393 15.90538927 74.35159686 15.71228352 63.21484375 15.8046875 C61.26959557 15.80893234 61.26959557 15.80893234 59.28504944 15.81326294 C55.86723872 15.82083379 52.44960284 15.84042441 49.03186035 15.8626709 C45.53233242 15.88327195 42.0327749 15.89240514 38.53320312 15.90234375 C31.68864857 15.9226119 24.84457173 15.96177403 18 16 Z M18 80 C18 99.47 18 118.94 18 139 C25.85267167 139.08426116 33.70367272 139.16435204 41.55640411 139.20700073 C45.21447924 139.22798201 48.87217379 139.25594046 52.5300293 139.30175781 C56.06382745 139.3457361 59.59726038 139.36924437 63.13131142 139.37950897 C65.11241851 139.39032181 67.09338195 139.42146133 69.07426453 139.45318604 C79.87020267 139.4558158 90.85214009 137.88805841 99.3515625 130.6796875 C105.4780079 124.43710096 107.54014347 117.68119406 108 109 C107.62195788 100.53673458 104.2023401 95.1353324 98.28515625 89.3125 C87.32637012 80.04502758 72.24544852 79.83919404 58.625 79.90234375 C57.07425781 79.90385437 57.07425781 79.90385437 55.4921875 79.90539551 C51.66144691 79.91059421 47.83072224 79.92455527 44 79.9375 C31.13 79.9684375 31.13 79.9684375 18 80 Z " fill="#FFFFFF" transform="translate(2286,2138)"/>
<path d="M0 0 C1.78615723 0.00845947 1.78615723 0.00845947 3.60839844 0.01708984 C21.324569 0.26120079 39.38141977 3.91761558 52.75 16.3125 C53.44609375 16.92996094 54.1421875 17.54742188 54.859375 18.18359375 C62.58881242 25.40451555 67.47601802 34.29796688 70.75 44.3125 C70.75 44.9725 70.75 45.6325 70.75 46.3125 C64.15 46.3125 57.55 46.3125 50.75 46.3125 C50.028125 44.78625 49.30625 43.26 48.5625 41.6875 C42.29081944 29.3009309 32.90302082 23.64984422 20.046875 19.2578125 C3.14384409 14.41120885 -16.40606496 16.17178248 -32.0625 24 C-47.23362066 33.01701079 -55.24835543 46.24421829 -60 62.94921875 C-64.09190333 81.50486373 -61.40555438 102.73291662 -51.6171875 119.03125 C-42.95730803 131.92398535 -31.93653557 139.9997152 -16.6484375 143.65625 C1.18424917 146.76631068 19.20285207 144.80349147 34.75 135.3125 C42.83911021 129.61335417 48.00487058 118.81382075 50.125 109.3125 C50.91342115 103.00513082 51.29712137 96.65280085 51.75 90.3125 C34.26 90.3125 16.77 90.3125 -1.25 90.3125 C-1.25 85.0325 -1.25 79.7525 -1.25 74.3125 C22.18 74.3125 45.61 74.3125 69.75 74.3125 C69.75 102.0325 69.75 129.7525 69.75 158.3125 C64.8 158.3125 59.85 158.3125 54.75 158.3125 C54.11540309 155.13951547 53.61299735 152.47659628 53.43359375 149.32421875 C53.39169922 148.61845703 53.34980469 147.91269531 53.30664062 147.18554688 C53.26732422 146.46431641 53.22800781 145.74308594 53.1875 145 C53.14431641 144.25943359 53.10113281 143.51886719 53.05664062 142.75585938 C52.95129568 140.94158536 52.85021684 139.1270645 52.75 137.3125 C52.28851562 137.95316406 51.82703125 138.59382813 51.3515625 139.25390625 C42.28010757 151.28344432 30.47890726 158.12991055 15.67236328 160.91772461 C-8.10011287 164.12909419 -33.52886349 161.83669787 -53.19140625 147.109375 C-55.67318266 144.94208324 -57.97077614 142.6904628 -60.25 140.3125 C-60.94351563 139.64992188 -61.63703125 138.98734375 -62.3515625 138.3046875 C-77.84927205 122.56763109 -81.53098193 99.97385126 -81.5690918 78.84545898 C-81.46829702 69.12299019 -80.30343453 60.52302455 -77.25 51.3125 C-76.899375 50.24386719 -76.54875 49.17523437 -76.1875 48.07421875 C-69.47063132 30.09260156 -55.55879819 15.4739039 -38.23339844 7.36914062 C-25.63969226 1.94360672 -13.69453147 -0.06794848 0 0 Z " fill="#FFFFFF" transform="translate(2768.25,2134.6875)"/>
<path d="M0 0 C2.2344964 1.67874687 4.29095261 3.43627662 6.33984375 5.3359375 C7.0359375 5.95339844 7.73203125 6.57085938 8.44921875 7.20703125 C16.17865617 14.42795305 21.06586177 23.32140438 24.33984375 33.3359375 C24.33984375 33.9959375 24.33984375 34.6559375 24.33984375 35.3359375 C17.73984375 35.3359375 11.13984375 35.3359375 4.33984375 35.3359375 C3.61796875 33.8096875 2.89609375 32.2834375 2.15234375 30.7109375 C-4.11933681 18.3243684 -13.50713543 12.67328172 -26.36328125 8.28125 C-43.26631216 3.43464635 -62.81622121 5.19521998 -78.47265625 13.0234375 C-93.64377691 22.04044829 -101.65851168 35.26765579 -106.41015625 51.97265625 C-110.50205958 70.52830123 -107.81571063 91.75635412 -98.02734375 108.0546875 C-89.36746428 120.94742285 -78.34669182 129.0231527 -63.05859375 132.6796875 C-45.22590708 135.78974818 -27.20730418 133.82692897 -11.66015625 124.3359375 C-3.57104604 118.63679167 1.59471433 107.83725825 3.71484375 98.3359375 C4.5032649 92.02856832 4.88696512 85.67623835 5.33984375 79.3359375 C-12.15015625 79.3359375 -29.64015625 79.3359375 -47.66015625 79.3359375 C-47.66015625 74.0559375 -47.66015625 68.7759375 -47.66015625 63.3359375 C-24.23015625 63.3359375 -0.80015625 63.3359375 23.33984375 63.3359375 C23.33984375 91.0559375 23.33984375 118.7759375 23.33984375 147.3359375 C18.38984375 147.3359375 13.43984375 147.3359375 8.33984375 147.3359375 C7.34984375 136.9409375 7.34984375 136.9409375 6.33984375 126.3359375 C5.22609375 127.8415625 4.11234375 129.3471875 2.96484375 130.8984375 C-6.21411509 142.29967059 -19.28813641 148.39445412 -33.66015625 150.3359375 C-58.02988527 151.94788055 -82.90202057 150.71622927 -102.16015625 133.8984375 C-103.68074576 132.39819033 -105.18205956 130.87806726 -106.66015625 129.3359375 C-107.35367187 128.67335938 -108.0471875 128.01078125 -108.76171875 127.328125 C-124.25875664 111.59175061 -127.94111669 88.99868848 -127.97924805 67.87109375 C-127.83491501 53.95552707 -125.32106734 41.68394226 -118.66015625 29.3359375 C-118.21929688 28.49804688 -117.7784375 27.66015625 -117.32421875 26.796875 C-107.45528877 9.18546956 -91.3555237 -2.41004124 -72.16015625 -8.0390625 C-49.25117139 -14.19451404 -20.54338359 -12.85092718 0 0 Z " fill="#FFFFFF" transform="translate(1896.66015625,2145.6640625)"/>
<path d="M0 0 C22 0 22 0 27.8125 5.75 C29.15112305 7.70410156 29.15112305 7.70410156 30.01171875 9.390625 C31.7875587 12.67148716 33.82744661 15.5502654 36.125 18.5 C36.84945313 19.469375 37.57390625 20.43875 38.3203125 21.4375 C41.85198749 26.14639999 45.42958921 30.82045493 49 35.5 C53.87864873 41.8947895 58.73802806 48.30158805 63.55078125 54.74609375 C66.21371153 58.29705188 68.91454417 61.8189518 71.61035156 65.3449707 C78.14765921 73.8977177 84.61654061 82.49349323 90.98217773 91.17480469 C95.13233619 96.83351751 99.32461471 102.45842957 103.56738281 108.0480957 C108.51856971 114.60613459 113.21695827 121.30374158 118 128 C118.33 85.76 118.66 43.52 119 0 C124.61 0 130.22 0 136 0 C136 51.15 136 102.3 136 155 C115 155 115 155 110.0625 150.6875 C109.06271051 149.10281342 108.0672204 147.51410398 107.13769531 145.88720703 C104.85766014 142.1050886 102.08624762 138.65327279 99.4375 135.125 C98.23152152 133.47900012 97.0271325 131.83183469 95.82421875 130.18359375 C91.87019584 124.79696872 87.81534511 119.49033252 83.75 114.1875 C78.96693455 107.93981522 74.25370163 101.66244358 69.71679688 95.23388672 C66.28922085 90.38099611 62.77879806 85.59220678 59.25 80.8125 C58.65832031 80.01070312 58.06664062 79.20890625 57.45703125 78.3828125 C54.44643496 74.30582789 51.43123912 70.23227243 48.4140625 66.16015625 C37.65858858 51.62777041 27.29206977 36.866323 17 22 C17 65.89 17 109.78 17 155 C11.39 155 5.78 155 0 155 C0 103.85 0 52.7 0 0 Z M119 130 C120 132 120 132 120 132 Z " fill="#FFFFFF" transform="translate(1589,2138)"/>
<path d="M0 0 C1.0725 0.36222656 2.145 0.72445312 3.25 1.09765625 C10.73649684 3.91464167 16.79502253 8.00232584 23 13 C23.78246094 13.60585937 24.56492187 14.21171875 25.37109375 14.8359375 C40.48404376 27.25108188 49.45367515 47.19894877 51.53515625 66.390625 C53.55807735 90.02028214 48.03807358 113.28953539 32.75 131.8125 C21.10223482 145.29361744 3.81424947 154.99946931 -14 157 C-39.02797459 158.70028012 -62.07614849 156.23319162 -81.9375 139.75 C-97.44057622 126.16686765 -107.32985601 105.90614718 -108.91015625 85.28515625 C-108.93980469 84.53105469 -108.96945312 83.77695313 -109 83 C-109.03996094 82.02933594 -109.07992187 81.05867188 -109.12109375 80.05859375 C-109.59549286 56.86884907 -102.63000952 36.30151147 -87 19 C-64.88963726 -3.82631735 -29.66815251 -10.28271195 0 0 Z M-76.00390625 33.4140625 C-80.25620063 39.2001218 -83.45063932 45.29508803 -86 52 C-86.32097656 52.84304687 -86.64195312 53.68609375 -86.97265625 54.5546875 C-92.53449336 72.40430426 -89.70323915 92.72648453 -81.8125 109.3125 C-78.39248027 115.79369371 -74.24486638 120.91521033 -69 126 C-68.15501953 126.85851563 -68.15501953 126.85851563 -67.29296875 127.734375 C-55.88850678 138.50063107 -40.70473166 141.52286602 -25.57421875 141.41967773 C-8.80444292 140.92877033 5.22944905 134.86067889 16.8125 122.609375 C20.11350721 118.67174497 22.66221329 114.5649526 25 110 C25.37769531 109.29488281 25.75539063 108.58976562 26.14453125 107.86328125 C34.043156 91.85895171 34.5148145 71.22848338 29.26171875 54.36328125 C23.12223256 37.99765397 13.40053223 25.02186564 -2.57128906 17.30786133 C-27.95712305 5.7826927 -58.03675064 11.7694189 -76.00390625 33.4140625 Z " fill="#FFFFFF" transform="translate(851,2139)"/>
<path d="M0 0 C19.614375 -0.0928125 19.614375 -0.0928125 39.625 -0.1875 C43.72631348 -0.21481201 47.82762695 -0.24212402 52.05322266 -0.27026367 C57.1315918 -0.28381348 57.1315918 -0.28381348 59.52255249 -0.28633118 C61.16279556 -0.29088363 62.80302976 -0.30131941 64.44320679 -0.31672668 C81.74270662 -0.4708524 99.60461879 0.9906737 113.0625 13.3125 C120.72016931 21.9563843 123.50325703 32.78804528 123.25 44.10546875 C122.43763609 53.51111963 119.88346159 63.29094776 112.921875 70.00390625 C108.56062461 73.55669356 104.28135354 76.08972319 99 78 C99.57878906 78.42925781 100.15757812 78.85851563 100.75390625 79.30078125 C110.7439987 86.85850336 116.64688016 93.83964816 118.52709961 106.56835938 C119.12218832 111.5080133 119.22622444 116.43562656 119.31640625 121.40625 C119.33718735 122.3715564 119.35796844 123.33686279 119.37937927 124.3314209 C119.44428962 127.38754787 119.50348516 130.44375408 119.5625 133.5 C119.60574099 135.58334123 119.64935698 137.66667471 119.69335938 139.75 C119.79991025 144.833254 119.90133915 149.91658699 120 155 C117.02077407 155.02683987 114.04178705 155.04676037 111.0625 155.0625 C110.21236328 155.07087891 109.36222656 155.07925781 108.48632812 155.08789062 C107.67744141 155.09111328 106.86855469 155.09433594 106.03515625 155.09765625 C105.2862915 155.10289307 104.53742676 155.10812988 103.76586914 155.11352539 C102 155 102 155 101 154 C100.0487881 148.76664352 99.83981754 143.66434041 99.7890625 138.35546875 C99.76099181 136.69204749 99.73232733 135.02863616 99.703125 133.36523438 C99.66199296 130.7785676 99.62504683 128.19208592 99.59863281 125.60522461 C99.6020508 110.28810457 99.6020508 110.28810457 94.3125 96.125 C85.29603059 87.83959568 73.25319201 87.69717689 61.65234375 87.5859375 C59.98516296 87.55947144 59.98516296 87.55947144 58.28430176 87.5324707 C54.16884299 87.4698408 50.05315127 87.42335337 45.9375 87.375 C32.1084375 87.189375 32.1084375 87.189375 18 87 C18 109.44 18 131.88 18 155 C12.06 155 6.12 155 0 155 C0 103.85 0 52.7 0 0 Z M18 16 C18 34.15 18 52.3 18 71 C26.8275 71.04125 35.655 71.0825 44.75 71.125 C48.89320801 71.15231201 48.89320801 71.15231201 53.12011719 71.18017578 C55.34570116 71.18602509 57.57128729 71.19111961 59.796875 71.1953125 C60.92303223 71.20554443 62.04918945 71.21577637 63.20947266 71.22631836 C75.12411352 71.22890064 87.37810718 70.46168926 96.84765625 62.43359375 C102.19700332 56.76880606 104.10204072 50.23477848 104.4375 42.5625 C104.19467573 35.33847789 102.25842723 28.72848549 96.9375 23.625 C89.2788121 17.79845511 79.42140083 15.86589214 69.99462891 15.88647461 C68.25350327 15.88658791 68.25350327 15.88658791 66.47720337 15.88670349 C65.23949188 15.89186478 64.0017804 15.89702606 62.7265625 15.90234375 C61.44768158 15.9037587 60.16880066 15.90517365 58.85116577 15.90663147 C55.46788664 15.91126978 52.08467614 15.92023919 48.70141602 15.93133545 C45.24235637 15.94160485 41.78328939 15.94619586 38.32421875 15.95117188 C31.54944077 15.96133201 24.77478223 15.98091013 18 16 Z " fill="#FFFFFF" transform="translate(2455,2138)"/>
<path d="M0 0 C19.614375 -0.0928125 19.614375 -0.0928125 39.625 -0.1875 C43.72631348 -0.21481201 47.82762695 -0.24212402 52.05322266 -0.27026367 C57.1315918 -0.28381348 57.1315918 -0.28381348 59.52255249 -0.28633118 C61.16279556 -0.29088363 62.80302976 -0.30131941 64.44320679 -0.31672668 C81.28024162 -0.46673218 97.88524953 0.88065355 111.48046875 12.03515625 C119.18829673 20.00328611 122.63430585 29.80989379 123.06640625 40.76953125 C122.84131173 51.71971745 120.34083343 61.57394643 112.8125 69.8125 C108.77765437 73.57954614 104.01999983 75.80816909 99 78 C99.99 78.7734375 99.99 78.7734375 101 79.5625 C101.99 80.366875 102.98 81.17125 104 82 C104.639375 82.474375 105.27875 82.94875 105.9375 83.4375 C112.70096559 88.76629107 116.20838261 95.61184124 118 104 C118.13871818 105.70915648 118.23349553 107.42214636 118.29711914 109.13574219 C118.3570681 110.66687653 118.3570681 110.66687653 118.41822815 112.22894287 C118.45681442 113.32386047 118.4954007 114.41877808 118.53515625 115.546875 C118.59962196 117.23638275 118.59962196 117.23638275 118.66539001 118.96002197 C118.80171172 122.55654554 118.93217618 126.15325458 119.0625 129.75 C119.15391113 132.18881657 119.24570335 134.62761889 119.33789062 137.06640625 C119.56301572 143.04411446 119.78288808 149.0219956 120 155 C113.73 155 107.46 155 101 155 C99.8755809 148.25348539 99.8755809 148.25348539 99.82641602 144.97338867 C99.81292618 144.24210251 99.79943634 143.51081635 99.78553772 142.75737 C99.76988014 141.59936638 99.76988014 141.59936638 99.75390625 140.41796875 C99.72096345 138.74673964 99.68775188 137.07551581 99.65429688 135.40429688 C99.60702195 132.79780725 99.56255797 130.19133835 99.52319336 127.5847168 C99.48311578 125.04974991 99.43166461 122.51519924 99.37890625 119.98046875 C99.3704921 119.21453903 99.36207794 118.44860931 99.35340881 117.6594696 C99.1605324 109.07445602 97.89165648 100.59446829 92 94 C83.28095817 87.58446049 71.99023195 87.68506649 61.65234375 87.5859375 C59.98516296 87.55947144 59.98516296 87.55947144 58.28430176 87.5324707 C54.16884299 87.4698408 50.05315127 87.42335337 45.9375 87.375 C32.1084375 87.189375 32.1084375 87.189375 18 87 C18 109.44 18 131.88 18 155 C12.06 155 6.12 155 0 155 C0 103.85 0 52.7 0 0 Z M18 16 C18 34.15 18 52.3 18 71 C26.78625 71.061875 35.5725 71.12375 44.625 71.1875 C47.36893066 71.21481201 50.11286133 71.24212402 52.93994141 71.27026367 C76.17773244 71.9928906 76.17773244 71.9928906 96.70703125 62.5390625 C102.0710678 56.97925819 104.05613766 50.05033842 104.375 42.4375 C104.10351761 35.46533864 101.98955796 28.98955796 97 24 C89.21674859 17.84580121 79.75917213 15.86515465 69.99462891 15.88647461 C68.25350327 15.88658791 68.25350327 15.88658791 66.47720337 15.88670349 C65.23949188 15.89186478 64.0017804 15.89702606 62.7265625 15.90234375 C61.44768158 15.9037587 60.16880066 15.90517365 58.85116577 15.90663147 C55.46788664 15.91126978 52.08467614 15.92023919 48.70141602 15.93133545 C45.24235637 15.94160485 41.78328939 15.94619586 38.32421875 15.95117188 C31.54944077 15.96133201 24.77478223 15.98091013 18 16 Z " fill="#FFFFFF" transform="translate(3385,2138)"/>
<path d="M0 0 C19.614375 -0.0928125 19.614375 -0.0928125 39.625 -0.1875 C43.72631348 -0.21481201 47.82762695 -0.24212402 52.05322266 -0.27026367 C57.1315918 -0.28381348 57.1315918 -0.28381348 59.52255249 -0.28633118 C61.16279556 -0.29088363 62.80302976 -0.30131941 64.44320679 -0.31672668 C81.57164717 -0.46932838 99.22376578 0.89640528 112.47265625 13.23828125 C119.7005984 21.57537053 122.38829943 30.45260724 122.3125 41.3125 C122.30686035 42.15337158 122.3012207 42.99424316 122.29541016 43.8605957 C122.07680048 55.04107366 119.23805651 62.67408354 111.3359375 70.6875 C107.27071398 74.40003289 102.99620661 76.72102856 98 79 C99.175625 79.495 100.35125 79.99 101.5625 80.5 C109.30950616 84.42149338 113.31164775 90.63439111 116.2734375 98.60546875 C117.7952272 103.62082941 118.17942332 108.43285783 118.28125 113.65234375 C118.29965942 114.38892715 118.31806885 115.12551056 118.33703613 115.88441467 C118.39547838 118.23536585 118.44829543 120.58639168 118.5 122.9375 C118.74070448 133.66009714 119.14609917 144.30489216 120 155 C113.73 155 107.46 155 101 155 C99.95110335 150.80441341 99.81133844 146.93554422 99.75390625 142.6484375 C99.72094352 140.97525566 99.68773232 139.30207871 99.65429688 137.62890625 C99.60712564 135.00931422 99.56272239 132.3897384 99.52319336 129.77001953 C99.92953743 110.58206653 99.92953743 110.58206653 91.3125 94.3125 C84.9403613 89.38281061 77.08858452 87.91711772 69.19995117 87.79467773 C67.46497375 87.76440491 67.46497375 87.76440491 65.69494629 87.73352051 C64.4897937 87.71704468 63.28464111 87.70056885 62.04296875 87.68359375 C60.92748657 87.66494263 59.81200439 87.6462915 58.66271973 87.6270752 C54.50439207 87.55888737 50.34593683 87.49866862 46.1875 87.4375 C36.885625 87.293125 27.58375 87.14875 18 87 C18 109.44 18 131.88 18 155 C12.06 155 6.12 155 0 155 C0 103.85 0 52.7 0 0 Z M18 16 C18 34.15 18 52.3 18 71 C26.78625 71.061875 35.5725 71.12375 44.625 71.1875 C47.36893066 71.21481201 50.11286133 71.24212402 52.93994141 71.27026367 C76.36895566 71.85939016 76.36895566 71.85939016 97 62 C102.54858049 56.25466134 103.63003064 48.74089735 104 41 C103.46211623 33.62330826 100.60306283 28.60306283 95.375 23.375 C88.11087707 17.65957333 79.03315345 15.86673984 69.99462891 15.88647461 C68.25350327 15.88658791 68.25350327 15.88658791 66.47720337 15.88670349 C65.23949188 15.89186478 64.0017804 15.89702606 62.7265625 15.90234375 C61.44768158 15.9037587 60.16880066 15.90517365 58.85116577 15.90663147 C55.46788664 15.91126978 52.08467614 15.92023919 48.70141602 15.93133545 C45.24235637 15.94160485 41.78328939 15.94619586 38.32421875 15.95117188 C31.54944077 15.96133201 24.77478223 15.98091013 18 16 Z " fill="#FFFFFF" transform="translate(1348,2138)"/>
<path d="M0 0 C19.614375 -0.0928125 19.614375 -0.0928125 39.625 -0.1875 C43.72631348 -0.21481201 47.82762695 -0.24212402 52.05322266 -0.27026367 C57.1315918 -0.28381348 57.1315918 -0.28381348 59.52255249 -0.28633118 C61.16279556 -0.29088363 62.80302976 -0.30131941 64.44320679 -0.31672668 C81.03025651 -0.46450499 96.56833968 0.97538904 110.375 11.3125 C119.88030346 21.04412021 122.4820873 31.11613788 122.3515625 44.38208008 C122.00209819 55.95687202 118.5764659 63.67137703 110.1875 71.6875 C106.30490689 74.50428324 102.24661072 76.78232551 98 79 C98.87011719 79.41958984 98.87011719 79.41958984 99.7578125 79.84765625 C108.52849395 84.34878155 112.75802925 89.37774815 116.23828125 98.5703125 C117.86455883 103.75772099 118.182787 108.75027931 118.28125 114.16015625 C118.29965942 114.94587509 118.31806885 115.73159393 118.33703613 116.54112244 C118.39551836 119.04817542 118.44835486 121.55529749 118.5 124.0625 C118.71646195 134.41524807 118.99619953 144.68595014 120 155 C113.73 155 107.46 155 101 155 C99.97733486 150.90933944 99.83000499 147.18411619 99.7890625 143.0078125 C99.76095125 141.39842807 99.73228662 139.78905324 99.703125 138.1796875 C99.66225252 135.66797607 99.62533415 133.15643528 99.59863281 130.64453125 C100.06353915 111.08916619 100.06353915 111.08916619 91.875 94.328125 C85.17833126 89.58465131 77.26873519 87.91991385 69.19995117 87.79467773 C67.46497375 87.76440491 67.46497375 87.76440491 65.69494629 87.73352051 C64.4897937 87.71704468 63.28464111 87.70056885 62.04296875 87.68359375 C60.92748657 87.66494263 59.81200439 87.6462915 58.66271973 87.6270752 C54.50439207 87.55888737 50.34593683 87.49866862 46.1875 87.4375 C36.885625 87.293125 27.58375 87.14875 18 87 C18 109.44 18 131.88 18 155 C12.06 155 6.12 155 0 155 C0 103.85 0 52.7 0 0 Z M18 16 C18 34.15 18 52.3 18 71 C30.99375 71.061875 30.99375 71.061875 44.25 71.125 C48.31489746 71.15231201 48.31489746 71.15231201 52.46191406 71.18017578 C54.64648237 71.18602533 56.83105288 71.19111979 59.015625 71.1953125 C60.67247314 71.2106604 60.67247314 71.2106604 62.36279297 71.22631836 C74.38290414 71.22897181 85.91518508 70.06086008 96 63 C102.60632682 55.62608092 103.45558054 48.50310357 103.2734375 38.96484375 C102.8085151 32.2234689 100.68374434 28.36548512 95.875 23.75 C88.37468832 17.83039916 79.37907521 15.86598455 69.99462891 15.88647461 C68.25350327 15.88658791 68.25350327 15.88658791 66.47720337 15.88670349 C65.23949188 15.89186478 64.0017804 15.89702606 62.7265625 15.90234375 C61.44768158 15.9037587 60.16880066 15.90517365 58.85116577 15.90663147 C55.46788664 15.91126978 52.08467614 15.92023919 48.70141602 15.93133545 C45.24235637 15.94160485 41.78328939 15.94619586 38.32421875 15.95117188 C31.54944077 15.96133201 24.77478223 15.98091013 18 16 Z " fill="#FFFFFF" transform="translate(4302,2138)"/>
<path d="M0 0 C38.61 0 77.22 0 117 0 C117 5.28 117 10.56 117 16 C84.66 16 52.32 16 19 16 C19 32.17 19 48.34 19 65 C49.69 65 80.38 65 112 65 C112 70.61 112 76.22 112 82 C81.31 82 50.62 82 19 82 C19 100.81 19 119.62 19 139 C52.99 139 86.98 139 122 139 C120 153 120 153 119 155 C79.73 155 40.46 155 0 155 C0 103.85 0 52.7 0 0 Z " fill="#FFFFFF" transform="translate(1186,2138)"/>
<path d="M0 0 C38.61 0 77.22 0 117 0 C117 5.28 117 10.56 117 16 C84.33 16 51.66 16 18 16 C18 32.17 18 48.34 18 65 C49.02 65 80.04 65 112 65 C112 70.61 112 76.22 112 82 C80.98 82 49.96 82 18 82 C18 100.81 18 119.62 18 139 C51.99 139 85.98 139 121 139 C120 152 120 152 119 155 C79.73 155 40.46 155 0 155 C0 103.85 0 52.7 0 0 Z " fill="#FFFFFF" transform="translate(4471,2138)"/>
<path d="M0 0 C38.61 0 77.22 0 117 0 C117 5.28 117 10.56 117 16 C84.33 16 51.66 16 18 16 C18 32.17 18 48.34 18 65 C49.02 65 80.04 65 112 65 C112 70.61 112 76.22 112 82 C80.98 82 49.96 82 18 82 C18 100.81 18 119.62 18 139 C51.99 139 85.98 139 121 139 C120 150 120 150 119 155 C79.73 155 40.46 155 0 155 C0 103.85 0 52.7 0 0 Z " fill="#FFFFFF" transform="translate(207,2138)"/>
<path d="M0 0 C38.28 0 76.56 0 116 0 C116 5.28 116 10.56 116 16 C83.66 16 51.32 16 18 16 C18 32.17 18 48.34 18 65 C48.69 65 79.38 65 111 65 C111 70.61 111 76.22 111 82 C80.31 82 49.62 82 18 82 C18 100.81 18 119.62 18 139 C51.99 139 85.98 139 121 139 C119 154 119 154 118 155 C116.46914161 155.09581822 114.93386244 155.12188108 113.40000916 155.12025452 C112.4078411 155.12163201 111.41567305 155.12300951 110.39343929 155.12442875 C109.29157063 155.12083064 108.18970198 155.11723253 107.05444336 155.11352539 C105.88468492 155.11364593 104.71492647 155.11376646 103.5097208 155.11389065 C99.70307613 155.11314107 95.89647972 155.10551079 92.08984375 155.09765625 C89.74776228 155.09618697 87.40568049 155.09516617 85.06359863 155.09460449 C76.3548941 155.08934999 67.64619658 155.07538893 58.9375 155.0625 C39.488125 155.041875 20.03875 155.02125 0 155 C0 103.85 0 52.7 0 0 Z " fill="#FFFFFF" transform="translate(3224,2138)"/>
<path d="M0 0 C6.27 0 12.54 0 19 0 C19 21.12 19 42.24 19 64 C51.01 64 83.02 64 116 64 C116 42.88 116 21.76 116 0 C121.94 0 127.88 0 134 0 C134 51.15 134 102.3 134 155 C128.06 155 122.12 155 116 155 C116 130.25 116 105.5 116 80 C83.99 80 51.98 80 19 80 C19 104.75 19 129.5 19 155 C12.73 155 6.46 155 0 155 C0 103.85 0 52.7 0 0 Z " fill="#FFFFFF" transform="translate(2885,2138)"/>
<path d="M0 0 C13.24125 -0.061875 26.4825 -0.12375 40.125 -0.1875 C44.27852051 -0.21481201 48.43204102 -0.24212402 52.71142578 -0.27026367 C57.85327148 -0.28381348 57.85327148 -0.28381348 60.27389526 -0.28633118 C61.93497136 -0.29088451 63.59603866 -0.30132222 65.25704956 -0.31672668 C83.00965107 -0.47288121 100.84431196 1.09808182 114.5625 13.8125 C124.8732393 25.20509418 125.82660786 38.90057048 125.1953125 53.52294922 C124.32090995 64.6125596 118.71386878 74.06015613 110.4375 81.25 C97.01538297 91.33668076 80.8228281 92.3303287 64.60546875 92.1953125 C63.4390686 92.19329834 62.27266846 92.19128418 61.07092285 92.18920898 C56.77640769 92.17886379 52.48194926 92.15094279 48.1875 92.125 C33.7396875 92.063125 33.7396875 92.063125 19 92 C19 112.79 19 133.58 19 155 C12.73 155 6.46 155 0 155 C0 103.85 0 52.7 0 0 Z M19 16 C19 35.47 19 54.94 19 75 C26.85267167 75.08426116 34.70367272 75.16435204 42.55640411 75.20700073 C46.21447924 75.22798201 49.87217379 75.25594046 53.5300293 75.30175781 C57.06382745 75.3457361 60.59726038 75.36924437 64.13131142 75.37950897 C66.11241851 75.39032181 68.09338195 75.42146133 70.07426453 75.45318604 C81.05004982 75.45585961 92.31219209 74.04962161 100.4140625 65.96484375 C106.08595125 58.93784857 107.28015331 50.87870502 107 42 C105.79714572 34.82231219 103.0794748 28.99148981 97.8125 23.875 C86.50447613 16.33631742 74.05908468 15.68419096 60.796875 15.8046875 C59.72775879 15.80670166 58.65864258 15.80871582 57.55712891 15.81079102 C53.62137467 15.82113502 49.68568232 15.849056 45.75 15.875 C36.9225 15.91625 28.095 15.9575 19 16 Z " fill="#FFFFFF" transform="translate(585,2138)"/>
<path d="M0 0 C0.87454834 0.00523682 1.74909668 0.01047363 2.65014648 0.01586914 C3.59438477 0.0190918 4.53862305 0.02231445 5.51147461 0.02563477 C6.50469727 0.03401367 7.49791992 0.04239258 8.52124023 0.05102539 C9.51833008 0.05553711 10.51541992 0.06004883 11.54272461 0.06469727 C14.01478872 0.07652532 16.48673541 0.0930069 18.95874023 0.11352539 C23.09524834 8.22315089 26.95906032 16.41603357 30.64624023 24.73852539 C31.78396181 27.29392785 32.92402797 29.848282 34.06420898 32.40258789 C34.51985733 33.42415985 34.51985733 33.42415985 34.98471069 34.46636963 C38.69948123 42.78706507 42.46276443 51.08580405 46.2230835 59.38598633 C52.51200566 73.26790055 58.79346387 87.15283928 65.00830078 101.06811523 C67.81730608 107.35371886 70.64411672 113.63056517 73.49317932 119.89810181 C75.17295473 123.59435892 76.84860376 127.29248103 78.5241394 130.99066162 C79.35115604 132.81291126 80.18017603 134.6342531 81.01126099 136.45465088 C82.17199187 138.99753338 83.32581559 141.54344674 84.47827148 144.09008789 C84.83068909 144.85740234 85.18310669 145.6247168 85.54620361 146.4152832 C87.95874023 151.77207434 87.95874023 151.77207434 87.95874023 155.11352539 C81.35874023 155.11352539 74.75874023 155.11352539 67.95874023 155.11352539 C65.30712892 149.26054727 62.65595011 143.40737715 60.00585938 137.55371094 C59.10506969 135.56433901 58.20403118 133.57507973 57.30273438 131.5859375 C56.00381347 128.71913084 54.7058017 125.85191404 53.40795898 122.98461914 C52.80778206 121.66076454 52.80778206 121.66076454 52.19548035 120.31016541 C51.62522881 119.04965111 51.62522881 119.04965111 51.04345703 117.76367188 C50.71258591 117.03309067 50.38171478 116.30250946 50.04081726 115.54978943 C48.64969058 112.41770934 47.30874938 109.26354672 45.95874023 106.11352539 C21.20874023 105.78352539 -3.54125977 105.45352539 -29.04125977 105.11352539 C-30.03125977 108.08352539 -31.02125977 111.05352539 -32.04125977 114.11352539 C-32.64563209 115.68224702 -33.26877443 117.24415519 -33.92651367 118.79125977 C-34.26341217 119.58818237 -34.60031067 120.38510498 -34.94741821 121.20617676 C-35.30065155 122.03153931 -35.65388489 122.85690186 -36.01782227 123.70727539 C-36.38853851 124.58001099 -36.75925476 125.45274658 -37.14120483 126.35192871 C-37.91773023 128.17780002 -38.69595917 130.0029477 -39.47583008 131.82739258 C-40.67406507 134.63179327 -41.86584064 137.43887673 -43.05688477 140.24633789 C-43.8143195 142.02514463 -44.57211871 143.80379622 -45.33032227 145.58227539 C-45.86624496 146.84460999 -45.86624496 146.84460999 -46.41299438 148.13244629 C-48.9257867 153.99805232 -48.9257867 153.99805232 -50.04125977 155.11352539 C-51.456961 155.2000415 -52.87685477 155.22057443 -54.29516602 155.21118164 C-55.14916992 155.20795898 -56.00317383 155.20473633 -56.88305664 155.20141602 C-57.78088867 155.19303711 -58.6787207 155.1846582 -59.60375977 155.17602539 C-60.50545898 155.17151367 -61.4071582 155.16700195 -62.33618164 155.16235352 C-64.5712729 155.15052764 -66.80623413 155.13404759 -69.04125977 155.11352539 C-66.61465975 147.30656741 -63.45236794 139.9041244 -60.16625977 132.42602539 C-59.5797472 131.08318782 -58.99365623 129.74016604 -58.40795898 128.39697266 C-57.20141619 125.63087708 -55.9931127 122.86556142 -54.78344727 120.10083008 C-52.22841893 114.25781366 -49.69853756 108.4039277 -47.16625977 102.55102539 C-46.09486385 100.07827406 -45.02328623 97.60560233 -43.95141602 95.13305664 C-43.66057632 94.46213486 -43.36973663 93.79121307 -43.07008362 93.09996033 C-42.06051793 90.77113036 -41.0508893 88.44232768 -40.04125977 86.11352539 C-39.62946472 85.16362732 -39.21766968 84.21372925 -38.793396 83.23504639 C-31.98917405 67.54001568 -25.18044998 51.84694623 -18.3637085 36.15734863 C-17.51321191 34.19979729 -16.66282074 32.24220014 -15.81256104 30.2845459 C-13.73270244 25.49613847 -11.65073707 20.7086644 -9.56393433 15.92327881 C-8.96996514 14.56039062 -8.37679264 13.19715493 -7.78445435 11.83355713 C-6.98949107 10.0040267 -6.19126901 8.17591325 -5.39282227 6.34790039 C-4.9579248 5.34984375 -4.52302734 4.35178711 -4.07495117 3.32348633 C-2.5877336 0.14391773 -2.5877336 0.14391773 0 0 Z M6.95874023 16.11352539 C6.75007324 16.67595947 6.54140625 17.23839355 6.32641602 17.81787109 C-0.33750542 35.67358225 -7.62728748 53.23901769 -15.05834961 70.78662109 C-15.44553665 71.70354233 -15.83272369 72.62046356 -16.23164368 73.56517029 C-16.96483463 75.30079459 -17.70053717 77.03536073 -18.43913269 78.76869202 C-18.76746597 79.54619308 -19.09579926 80.32369415 -19.43408203 81.12475586 C-19.72146744 81.80134247 -20.00885284 82.47792908 -20.3049469 83.17501831 C-21.20144544 85.42064208 -21.20144544 85.42064208 -22.04125977 89.11352539 C-1.91125977 89.11352539 18.21874023 89.11352539 38.95874023 89.11352539 C38.26064527 85.62305056 37.78782217 83.38864942 36.38330078 80.31835938 C36.06134232 79.6073558 35.73938385 78.89635223 35.40766907 78.1638031 C35.05713974 77.40342239 34.70661041 76.64304169 34.34545898 75.85961914 C33.97934006 75.05359756 33.61322113 74.24757599 33.23600769 73.41712952 C32.45063899 71.68881364 31.66305709 69.96150207 30.87347412 68.23510742 C28.81351238 63.72976711 26.77054583 59.21674888 24.72827148 54.70336914 C24.32092773 53.80375458 23.91358398 52.90414001 23.49389648 51.9772644 C19.84355599 43.89707598 16.30611263 35.77158129 12.83374023 27.61352539 C12.33189209 26.43459717 11.83004395 25.25566895 11.31298828 24.04101562 C10.19183312 21.39979995 9.0733034 18.75752802 7.95874023 16.11352539 C7.62874023 16.11352539 7.29874023 16.11352539 6.95874023 16.11352539 Z " fill="#FFFFFF" transform="translate(2091.041259765625,2137.886474609375)"/>
<path d="M0 0 C6.27 0 12.54 0 19 0 C19.0093457 2.9810376 19.01869141 5.9620752 19.02832031 9.03344727 C19.06223321 18.93212548 19.11786104 28.83059835 19.18390274 38.72911167 C19.22325012 44.72493577 19.25550086 50.72061579 19.27099609 56.71655273 C19.28624683 62.51337936 19.32084055 68.30980954 19.36830902 74.10645866 C19.38303645 76.30735751 19.391036 78.50831298 19.39188385 80.70926094 C19.4059421 98.92030381 20.38818422 115.49468307 33.125 129.75 C44.53487899 140.42782923 59.0213982 141.59074884 73.80859375 141.31640625 C85.32332802 140.8177613 95.68233961 136.77441883 103.6875 128.375 C116.80067069 112.47752595 115.15377018 90.93294823 115.31640625 71.58203125 C115.33701045 69.51266599 115.35800775 67.44330462 115.37937927 65.37394714 C115.43424234 59.96047126 115.48380745 54.54695969 115.53222656 49.13342285 C115.58270484 43.59607819 115.63825267 38.05878457 115.69335938 32.52148438 C115.80050266 21.6810318 115.9015734 10.84053522 116 0 C121.94 0 127.88 0 134 0 C134.04534634 12.53582036 134.08197091 25.07158544 134.10362434 37.60746956 C134.11402158 43.42958775 134.12810594 49.25164648 134.15087891 55.07373047 C134.17275292 60.70178683 134.18459909 66.32978631 134.18975449 71.95788193 C134.19342427 74.09545663 134.20058974 76.23302855 134.21146011 78.37057877 C134.32454727 101.54877138 133.04784766 125.09019136 116.2578125 142.93359375 C109.2557279 149.34207602 101.08343087 153.41697586 92 156 C91.10438354 156.26490234 91.10438354 156.26490234 90.19067383 156.53515625 C82.86333796 158.45685539 75.46871459 158.39822994 67.9375 158.375 C67.24746887 158.37412384 66.55743774 158.37324768 65.84649658 158.37234497 C47.659961 158.29603303 31.43680001 155.27146296 17.625 142.3125 C-0.45183717 122.88576914 -0.32735532 97.50228697 -0.1953125 72.55859375 C-0.19157206 70.45296871 -0.18872997 68.3473419 -0.18673706 66.24171448 C-0.1791817 60.75919602 -0.15960498 55.27678729 -0.1373291 49.79431152 C-0.11669397 44.17604048 -0.10769796 38.55775132 -0.09765625 32.93945312 C-0.07634964 21.95958 -0.04123577 10.97981638 0 0 Z " fill="#FFFFFF" transform="translate(3777,2138)"/>
<path d="M0 0 C5.94 0 11.88 0 18 0 C18.01458252 2.82433594 18.02916504 5.64867188 18.04418945 8.55859375 C18.09478739 17.94635016 18.16142511 27.33394508 18.23571491 36.72154236 C18.28022283 42.40679475 18.31952087 48.09197869 18.34643555 53.77734375 C18.37266536 59.27587055 18.41320324 64.77413112 18.46318626 70.27249146 C18.47972305 72.35813048 18.49131863 74.44381541 18.49761391 76.5295105 C18.55916624 95.06763684 18.77812509 115.02560546 32.2421875 129.4765625 C45.48889252 140.95704018 61.29439691 141.92126488 78 141 C87.66268681 139.77133939 96.55072439 135.98720847 103.3125 128.8125 C114.95042598 113.75552232 114.45981477 94.79042142 114.51171875 76.7578125 C114.52859427 74.53578722 114.5467483 72.31377131 114.56611633 70.09176636 C114.61331052 64.28870577 114.64331683 58.48568323 114.66955566 52.68249512 C114.69951664 46.74268078 114.74599303 40.80299714 114.79101562 34.86328125 C114.87670034 23.24224142 114.94266994 11.62121433 115 0 C120.94 0 126.88 0 133 0 C133.06979595 13.17043709 133.12296079 26.3408295 133.15543652 39.51141453 C133.17103051 45.62836344 133.19215332 51.74518494 133.22631836 57.86206055 C133.25913649 63.77541782 133.27690003 69.68865326 133.28463173 75.60209465 C133.29013518 77.84770561 133.30088096 80.09331061 133.31719017 82.33886909 C133.46009893 102.84845532 132.17697735 122.15748459 119 139 C118.47277344 139.67675781 117.94554688 140.35351562 117.40234375 141.05078125 C113.33352911 145.65614288 108.71580884 148.53235026 103.3125 151.3125 C102.37881592 151.80085327 102.37881592 151.80085327 101.42626953 152.29907227 C90.55034019 157.56988357 79.11336695 158.53368866 67.1875 158.4375 C65.86959473 158.42992676 64.55168945 158.42235352 63.19384766 158.41455078 C45.46025536 158.11464927 29.40247604 154.11536157 16.25 141.46875 C-0.03397532 123.60161041 -0.30552717 101.21453535 -0.1953125 78.515625 C-0.19157659 76.24591192 -0.18873235 73.97619721 -0.18673706 71.70648193 C-0.17914609 65.76850841 -0.15953708 59.83063464 -0.1373291 53.8927002 C-0.11677238 47.81910552 -0.10771443 41.74549453 -0.09765625 35.671875 C-0.07628648 23.78120647 -0.04220601 11.89061157 0 0 Z " fill="#FFFFFF" transform="translate(4116,2138)"/>
<path d="M0 0 C37.62 0 75.24 0 114 0 C114 5.28 114 10.56 114 16 C82.32 16 50.64 16 18 16 C18 33.82 18 51.64 18 70 C47.7 70 77.4 70 108 70 C108 75.28 108 80.56 108 86 C78.3 86 48.6 86 18 86 C18 108.77 18 131.54 18 155 C12.06 155 6.12 155 0 155 C0 103.85 0 52.7 0 0 Z " fill="#FFFFFF" transform="translate(3626,2138)"/>
<path d="M0 0 C45.21 0 90.42 0 137 0 C137 5.28 137 10.56 137 16 C117.53 16 98.06 16 78 16 C78 61.87 78 107.74 78 155 C71.73 155 65.46 155 59 155 C59 109.13 59 63.26 59 16 C39.53 16 20.06 16 0 16 C0 10.72 0 5.44 0 0 Z " fill="#FFFFFF" transform="translate(3053,2138)"/>
<path d="M0 0 C45.54 0 91.08 0 138 0 C138 5.28 138 10.56 138 16 C118.2 16 98.4 16 78 16 C78 61.87 78 107.74 78 155 C72.06 155 66.12 155 60 155 C60 109.13 60 63.26 60 16 C40.2 16 20.4 16 0 16 C0 10.72 0 5.44 0 0 Z " fill="#FFFFFF" transform="translate(3945,2138)"/>
<path d="M0 0 C6.27 0 12.54 0 19 0 C19 51.15 19 102.3 19 155 C12.73 155 6.46 155 0 155 C0 103.85 0 52.7 0 0 Z " fill="#FFFFFF" transform="translate(1517,2138)"/>
<path d="M0 0 C5.94 0 11.88 0 18 0 C18 51.15 18 102.3 18 155 C12.06 155 6.12 155 0 155 C0 103.85 0 52.7 0 0 Z " fill="#FFFFFF" transform="translate(2625,2138)"/>
</svg>
