<?xml version="1.0" encoding="utf-8"?>
<!-- Generator: Adobe Illustrator 26.0.1, SVG Export Plug-In . SVG Version: 6.00 Build 0)  -->
<svg version="1.1" id="Layer_1" xmlns="http://www.w3.org/2000/svg" xmlns:xlink="http://www.w3.org/1999/xlink" x="0px" y="0px"
	 viewBox="0 0 1417.32 1417.32" style="enable-background:new 0 0 1417.32 1417.32;" xml:space="preserve">
<style type="text/css">
	.st0{display:none;}
	.st1{display:inline;fill:url(#SVGID_1_);}
	.st2{display:inline;fill:url(#SVGID_00000060740537031497093770000012997705175405852328_);}
	.st3{display:inline;fill:url(#SVGID_00000127765141381411274360000010240459764600036287_);}
	.st4{fill:url(#SVGID_00000159437682949715881040000009462637419580451208_);}
	.st5{fill:none;stroke:url(#SVGID_00000164486587520871622300000014097022752680720318_);stroke-width:21;stroke-miterlimit:10;}
	.st6{fill:url(#SVGID_00000069377835203578585500000003738979542997640608_);}
	.st7{fill:#E30613;}
	.st8{fill:url(#SVGID_00000011033252704163506050000002411840986161976758_);}
	.st9{fill:url(#SVGID_00000023283359000298320950000004199676433707309219_);}
	.st10{fill:url(#SVGID_00000177483235951468422290000003709253785628837270_);}
	.st11{fill:url(#SVGID_00000167394643390975848280000006838958469812325013_);}
	.st12{opacity:0.58;}
	.st13{opacity:0.13;}
	.st14{fill:#0B0B0B;}
	.st15{fill:#010202;}
	.st16{fill:url(#SVGID_00000000912096721056152970000012394772566054658962_);}
	.st17{fill:url(#SVGID_00000012451332043227678210000006104159473905354646_);}
	.st18{fill:url(#SVGID_00000183943887176171216290000008164525268998370465_);}
	.st19{fill:url(#SVGID_00000177467639402943600980000007247052905416791983_);}
	.st20{fill:url(#SVGID_00000078006773900724219530000000353694884146242738_);}
</style>
<g>
	<g class="st0">
		<linearGradient id="SVGID_1_" gradientUnits="userSpaceOnUse" x1="491.3398" y1="684.1893" x2="925.983" y2="684.1893">
			<stop  offset="0" style="stop-color:#C31718"/>
			<stop  offset="0.25" style="stop-color:#E52826"/>
			<stop  offset="0.5" style="stop-color:#C31718"/>
			<stop  offset="0.75" style="stop-color:#E41D1A"/>
			<stop  offset="1" style="stop-color:#C31718"/>
		</linearGradient>
		<path class="st1" d="M799.84,855.1c3.52-2.23,6.99-4.55,10.34-7.03l37.46,28.97l29.41-29.42l-29.31-37.88
			c2.87-4.06,5.52-8.27,8.06-12.57l46.54,12.25l15.6-38.56L875.41,747c0.81-3.74,1.53-7.53,2.09-11.36l48.48-6.19v-41.61
			l-49.26-6.29c-0.79-4.56-1.83-9.03-2.97-13.46l43.09-25.14l-16.22-38.28l-48.66,13.66c-1.89-2.92-3.86-5.79-5.92-8.6l30.99-40.05
			l-29.41-29.41l-40.5,31.32c-3.49-2.47-7.1-4.75-10.77-6.96l13.07-49.65l-38.57-15.6l-25.22,44.94c-1-0.22-2.03-0.37-3.04-0.58
			c-2.21-0.47-4.42-0.94-6.64-1.31l-6.52-51.09h-41.6l-6.5,50.9c-4.23,0.67-8.44,1.43-12.6,2.42l-25.78-44.23l-38.3,16.25
			l13.72,48.74c-2.97,1.83-5.88,3.76-8.74,5.77l-39.96-30.91l-29.41,29.41l30.53,39.46c-2.73,3.69-5.36,7.44-7.79,11.36L515,607.88
			l-15.59,38.56l42.63,23.9c-0.92,3.77-1.68,7.56-2.34,11.33l-48.35,6.18v41.61l47.72,6.09c0.74,4.92,1.61,9.82,2.77,14.65
			l-41.38,24.13l16.25,38.29l45.55-12.81c2.18,3.55,4.52,7.01,6.97,10.4l-28.94,37.41l29.41,29.42l37.19-28.77
			c4.17,3.06,8.44,6,12.94,8.69"/>
		
			<linearGradient id="SVGID_00000105425033746319573370000004046062438638004902_" gradientUnits="userSpaceOnUse" x1="669.3973" y1="877.0099" x2="669.3973" y2="877.0099">
			<stop  offset="0" style="stop-color:#C31718"/>
			<stop  offset="0.25" style="stop-color:#E52826"/>
			<stop  offset="0.5" style="stop-color:#C31718"/>
			<stop  offset="0.75" style="stop-color:#E41D1A"/>
			<stop  offset="1" style="stop-color:#C31718"/>
		</linearGradient>
		<path style="display:inline;fill:url(#SVGID_00000105425033746319573370000004046062438638004902_);" d="M669.4,877.01"/>
		
			<linearGradient id="SVGID_00000018941750993328659940000005793743932604306842_" gradientUnits="userSpaceOnUse" x1="523.6808" y1="905.7725" x2="892.1064" y2="905.7725">
			<stop  offset="0" style="stop-color:#C31718"/>
			<stop  offset="0.25" style="stop-color:#E52826"/>
			<stop  offset="0.5" style="stop-color:#C31718"/>
			<stop  offset="0.75" style="stop-color:#E41D1A"/>
			<stop  offset="1" style="stop-color:#C31718"/>
		</linearGradient>
		<path style="display:inline;fill:url(#SVGID_00000018941750993328659940000005793743932604306842_);" d="M872.09,949.3H543.7
			c-11.01,0-20.01-9.01-20.01-20.01v-47.02c0-11.01,9.01-20.01,20.01-20.01h328.4c11.01,0,20.01,9.01,20.01,20.01v47.02
			C892.11,940.29,883.1,949.3,872.09,949.3z"/>
	</g>
	<g>
		
			<linearGradient id="SVGID_00000038396208808594102450000000363962578741561994_" gradientUnits="userSpaceOnUse" x1="400.9773" y1="676.1204" x2="1017.7822" y2="676.1204" gradientTransform="matrix(0.9785 -0.2061 0.2061 0.9785 -124.1395 160.7526)">
			<stop  offset="0" style="stop-color:#C31718"/>
			<stop  offset="0.25" style="stop-color:#E52826"/>
			<stop  offset="0.5" style="stop-color:#C31718"/>
			<stop  offset="0.75" style="stop-color:#E41D1A"/>
			<stop  offset="1" style="stop-color:#C31718"/>
		</linearGradient>
		<path style="fill:url(#SVGID_00000038396208808594102450000000363962578741561994_);" d="M836.55,413.05L803,420.11l-7.07-33.55
			l33.55-7.07L836.55,413.05z M912.08,382.53l-39.25,8.27l8.27,39.25l39.25-8.27L912.08,382.53z M856.63,435.2l-46.91,9.88
			c-0.77,0.16-1.26,0.92-1.1,1.69l9.88,46.91c0.16,0.77,0.92,1.26,1.69,1.1l46.91-9.88c0.77-0.16,1.26-0.92,1.1-1.69l-9.88-46.91
			C858.15,435.53,857.4,435.04,856.63,435.2z M912.49,452.24l-35.26,7.43l7.43,35.26l35.26-7.43L912.49,452.24z M952.79,335.46
			l-28.29,5.96l5.96,28.29l28.29-5.96L952.79,335.46z M918.94,281.68l-20.45,4.31l4.31,20.45l20.45-4.31L918.94,281.68z
			 M869.54,338.93l-26.93,5.67l5.67,26.93l26.93-5.67L869.54,338.93z M982.41,697.87l54.11,35.07l-22.44,68.62l-22.44,68.62
			l-64.42-3.67c-19.93,26.01-44.65,48.43-73.23,65.79l-3.31,64.34l-70.65,14.88l-70.65,14.88l-28.99-57.54
			c-33.15-4.36-64.82-14.9-93.55-30.66l-57.46,29.34l-48.21-53.74l-48.21-53.74l35.36-53.91c-6.2-15.01-11.18-30.75-14.65-47.22
			c-3.47-16.46-5.26-32.88-5.64-49.11l-54.1-35.07l22.43-68.62l22.44-68.62l64.42,3.67c19.93-26.01,44.65-48.43,73.23-65.79
			l3.31-64.34l70.65-14.88l70.65-14.88l28.99,57.54c15.74,2.07,31.12,5.57,46.03,10.33l13.83,65.64l54.25-11.43l3.93,18.66
			l73.35-15.45l-5.9-28l13.73,15.31l48.21,53.74l-35.36,53.91c6.2,15.01,11.18,30.75,14.65,47.22
			C980.24,665.22,982.03,681.63,982.41,697.87z M867.88,671.69c-17.76-84.31-100.51-138.26-184.82-120.5
			c-84.31,17.76-138.26,100.51-120.5,184.82s100.51,138.26,184.82,120.5C831.69,838.75,885.64,756,867.88,671.69z"/>
	</g>
	<g>
		
			<linearGradient id="SVGID_00000036938870937947442620000014122287266860130460_" gradientUnits="userSpaceOnUse" x1="758.6437" y1="1024.8391" x2="662.3423" y2="388.5062">
			<stop  offset="0" style="stop-color:#4D4D4C"/>
			<stop  offset="0.3179" style="stop-color:#000000"/>
			<stop  offset="0.7291" style="stop-color:#4A4A49"/>
			<stop  offset="1" style="stop-color:#000000"/>
		</linearGradient>
		
			<path style="fill:none;stroke:url(#SVGID_00000036938870937947442620000014122287266860130460_);stroke-width:21;stroke-miterlimit:10;" d="
			M709.14,447.36c-16.21,0.07-32.03,1.7-47.39,4.63l-43.98-43.85l-60.08,35.03l-60.08,35.03l16.5,59.92
			c-20.46,24.04-36.57,51.86-47.13,82.29l-59.92,16.15l0.29,69.55l0.29,69.55l60.06,15.65c10.82,30.34,27.16,58.02,47.81,81.89
			l-16,60.06l60.38,34.52l60.38,34.52l-0.74-177.83c-35.97-27.32-59.37-70.34-59.57-119c-0.35-83,66.65-150.56,149.65-150.91
			c83-0.35,150.56,66.65,150.91,149.65c0.2,48.65-22.84,91.87-58.57,119.49l0.74,177.83l60.08-35.03l60.08-35.03l-16.5-59.92
			c20.45-24.04,36.56-51.86,47.13-82.29l59.92-16.15l-0.29-69.55l-0.29-69.55l-60.06-15.65c-10.82-30.34-27.16-58.02-47.81-81.89"/>
	</g>
</g>
<g>
	<g>
		
			<linearGradient id="SVGID_00000171684483740982172440000011188187091851850666_" gradientUnits="userSpaceOnUse" x1="617.7651" y1="694.6492" x2="710.5061" y2="694.6492">
			<stop  offset="0" style="stop-color:#4D4D4C"/>
			<stop  offset="0.3179" style="stop-color:#000000"/>
			<stop  offset="0.7291" style="stop-color:#4A4A49"/>
			<stop  offset="1" style="stop-color:#000000"/>
		</linearGradient>
		<path style="fill:url(#SVGID_00000171684483740982172440000011188187091851850666_);" d="M631.02,764.37
			c-7.31,0-13.25-5.94-13.25-13.25c0-6.27,4.41-11.6,10.46-12.89v-64.19l56.24-32.47c-0.76-2.83-0.57-5.81,0.57-8.51
			c1.36-3.26,3.92-5.8,7.2-7.14c1.61-0.66,3.29-0.99,5.01-0.99c5.41,0,10.23,3.23,12.27,8.24c1.34,3.27,1.33,6.88-0.04,10.14
			c-1.37,3.27-3.93,5.8-7.21,7.14c-1.6,0.66-3.29,0.99-5.01,0.99c-4.02,0-7.76-1.8-10.26-4.88l-53.18,30.7v60.97
			c6.05,1.29,10.45,6.62,10.45,12.89C644.27,758.43,638.32,764.37,631.02,764.37z M631.02,744.37c-3.72,0-6.74,3.03-6.74,6.75
			s3.03,6.75,6.74,6.75s6.74-3.03,6.74-6.75S634.73,744.37,631.02,744.37z M697.24,630.52c-0.99,0-1.97,0.19-2.89,0.57
			c-1.9,0.77-3.38,2.24-4.17,4.12c-0.79,1.89-0.8,3.97-0.03,5.87c1.18,2.9,3.97,4.77,7.1,4.77c0.99,0,1.96-0.19,2.89-0.57
			c1.9-0.78,3.38-2.24,4.17-4.13c0.79-1.89,0.8-3.97,0.03-5.86C703.16,632.39,700.37,630.52,697.24,630.52z"/>
		<path class="st7" d="M697.24,626.43c4.8,0,9.07,2.87,10.88,7.31c1.19,2.91,1.18,6.1-0.04,9c-1.22,2.9-3.49,5.14-6.39,6.33
			c-1.42,0.58-2.92,0.88-4.44,0.88c-4.05,0-7.7-2.06-9.84-5.36l-55.1,31.81v63.11c5.86,0.65,10.45,5.58,10.45,11.62
			c0,6.48-5.27,11.75-11.75,11.75c-6.48,0-11.75-5.27-11.75-11.75c0-6.04,4.59-10.97,10.46-11.62v-64.6l56.54-32.64
			c-1.04-2.8-1.01-5.85,0.16-8.62c1.21-2.9,3.48-5.14,6.39-6.33C694.22,626.72,695.72,626.43,697.24,626.43 M697.25,647.35
			c1.19,0,2.35-0.23,3.46-0.68c2.27-0.93,4.04-2.68,4.98-4.94c0.95-2.26,0.96-4.75,0.03-7.01c-1.41-3.46-4.74-5.7-8.49-5.7
			c-1.19,0-2.35,0.23-3.46,0.68c-2.27,0.92-4.04,2.68-4.98,4.93c-0.95,2.26-0.96,4.75-0.03,7.01
			C690.18,645.11,693.51,647.35,697.25,647.35 M631.02,759.36c4.55,0,8.24-3.7,8.24-8.25c0-4.55-3.7-8.25-8.24-8.25
			c-4.55,0-8.24,3.7-8.24,8.25C622.77,755.66,626.47,759.36,631.02,759.36 M697.24,623.43c-1.91,0-3.79,0.37-5.57,1.1
			c-3.65,1.49-6.5,4.32-8.02,7.95c-1.11,2.64-1.41,5.53-0.89,8.33l-54.53,31.48l-1.5,0.87v1.73v62.17
			c-6.12,1.85-10.46,7.48-10.46,14.06c0,8.13,6.62,14.75,14.75,14.75s14.75-6.62,14.75-14.75c0-6.57-4.34-12.21-10.45-14.06v-58.94
			l51.37-29.66c2.74,2.84,6.53,4.47,10.57,4.47c1.91,0,3.79-0.37,5.57-1.1c3.65-1.49,6.5-4.31,8.03-7.95
			c1.52-3.64,1.54-7.65,0.05-11.29C708.62,627.03,703.26,623.43,697.24,623.43L697.24,623.43z M697.25,644.35
			c-2.52,0-4.76-1.5-5.71-3.83c-0.62-1.52-0.61-3.2,0.02-4.72c0.63-1.52,1.82-2.69,3.35-3.32c0.75-0.31,1.53-0.46,2.33-0.46
			c2.52,0,4.76,1.5,5.71,3.83c0.63,1.53,0.62,3.2-0.02,4.71c-0.64,1.52-1.83,2.7-3.35,3.33
			C698.83,644.19,698.05,644.35,697.25,644.35L697.25,644.35z M631.02,756.36c-2.89,0-5.24-2.35-5.24-5.25
			c0-2.89,2.35-5.25,5.24-5.25s5.24,2.35,5.24,5.25C636.26,754.01,633.91,756.36,631.02,756.36L631.02,756.36z"/>
	</g>
	<g>
		
			<linearGradient id="SVGID_00000047747191864893993720000009115214038195572639_" gradientUnits="userSpaceOnUse" x1="650.4731" y1="756.1355" x2="743.2144" y2="756.1355">
			<stop  offset="0" style="stop-color:#4D4D4C"/>
			<stop  offset="0.3179" style="stop-color:#000000"/>
			<stop  offset="0.7291" style="stop-color:#4A4A49"/>
			<stop  offset="1" style="stop-color:#000000"/>
		</linearGradient>
		<path style="fill:url(#SVGID_00000047747191864893993720000009115214038195572639_);" d="M729.95,825.86
			c-1.72,0-3.41-0.33-5.01-0.99c-6.24-2.55-9.48-9.25-7.77-15.64l-56.24-32.47v-64.19c-6.05-1.3-10.46-6.62-10.46-12.9
			c0-7.31,5.94-13.25,13.25-13.25s13.25,5.94,13.25,13.25c0,6.27-4.41,11.6-10.45,12.9v60.96l53.18,30.7
			c2.5-3.08,6.23-4.88,10.25-4.88c1.72,0,3.4,0.33,5.01,0.99c3.28,1.34,5.84,3.88,7.21,7.14c1.37,3.27,1.38,6.87,0.04,10.14
			C740.17,822.62,735.36,825.86,729.95,825.86z M729.96,805.85c-2.76,0-5.21,1.65-6.25,4.2c-1.41,3.44,0.25,7.39,3.69,8.8
			c0.82,0.33,1.68,0.5,2.55,0.5c2.75,0,5.21-1.65,6.25-4.2c0.68-1.67,0.67-3.5-0.02-5.16c-0.7-1.67-2-2.96-3.67-3.63
			C731.69,806.02,730.83,805.85,729.96,805.85z M663.72,692c-4.23,0-7.66,3.44-7.66,7.66c0,4.23,3.44,7.66,7.66,7.66
			c4.22,0,7.66-3.44,7.66-7.66C671.38,695.44,667.95,692,663.72,692z"/>
		<path class="st7" d="M663.72,687.91c6.48,0,11.75,5.27,11.75,11.75c0,6.04-4.59,10.97-10.45,11.62v63.11l55.1,31.81
			c2.13-3.3,5.79-5.36,9.84-5.36c1.52,0,3.02,0.3,4.44,0.88c2.91,1.19,5.18,3.44,6.39,6.33c1.21,2.9,1.23,6.09,0.04,8.99
			c-1.81,4.44-6.08,7.31-10.88,7.31c-1.52,0-3.02-0.29-4.44-0.88c-5.88-2.4-8.73-9.05-6.54-14.95l-56.53-32.64v-64.6
			c-5.87-0.65-10.46-5.59-10.46-11.62C651.97,693.19,657.24,687.91,663.72,687.91 M663.72,708.83c5.05,0,9.16-4.11,9.16-9.16
			c0-5.05-4.11-9.16-9.16-9.16c-5.05,0-9.16,4.11-9.16,9.16C654.56,704.72,658.67,708.83,663.72,708.83 M729.95,820.85
			c3.36,0,6.36-2.01,7.64-5.13c0.83-2.04,0.82-4.28-0.03-6.31c-0.85-2.03-2.44-3.61-4.48-4.44c-1-0.41-2.05-0.62-3.11-0.62
			c-3.37,0-6.37,2.01-7.64,5.13c-1.72,4.21,0.3,9.03,4.51,10.75C727.83,820.64,728.88,820.85,729.95,820.85 M663.72,684.91
			c-8.13,0-14.75,6.62-14.75,14.75c0,6.57,4.34,12.21,10.46,14.06v62.16v1.73l1.5,0.87l54.53,31.49
			c-1.26,6.76,2.33,13.59,8.91,16.29c1.79,0.73,3.66,1.1,5.58,1.1c6.02,0,11.38-3.6,13.66-9.17c1.49-3.64,1.48-7.65-0.05-11.29
			c-1.53-3.64-4.38-6.46-8.03-7.95c-1.79-0.73-3.66-1.1-5.58-1.1c-4.04,0-7.82,1.63-10.57,4.47l-51.37-29.66v-58.94
			c6.11-1.85,10.45-7.49,10.45-14.06C678.47,691.53,671.86,684.91,663.72,684.91L663.72,684.91z M663.72,705.83
			c-3.4,0-6.16-2.76-6.16-6.16c0-3.4,2.76-6.16,6.16-6.16c3.4,0,6.16,2.76,6.16,6.16C669.88,703.07,667.12,705.83,663.72,705.83
			L663.72,705.83z M729.95,817.85c-0.68,0-1.34-0.13-1.98-0.39c-2.68-1.1-3.97-4.16-2.87-6.84c0.81-1.98,2.72-3.26,4.86-3.26
			c0.67,0,1.34,0.13,1.98,0.39c1.3,0.53,2.31,1.53,2.86,2.83c0.54,1.29,0.55,2.71,0.02,4.01C734,816.57,732.09,817.85,729.95,817.85
			L729.95,817.85z"/>
	</g>
	<g>
		
			<linearGradient id="SVGID_00000102516748053189297040000010449479241302380430_" gradientUnits="userSpaceOnUse" x1="706.8143" y1="722.6736" x2="799.5576" y2="722.6736">
			<stop  offset="0" style="stop-color:#4D4D4C"/>
			<stop  offset="0.3179" style="stop-color:#000000"/>
			<stop  offset="0.7291" style="stop-color:#4A4A49"/>
			<stop  offset="1" style="stop-color:#000000"/>
		</linearGradient>
		<path style="fill:url(#SVGID_00000102516748053189297040000010449479241302380430_);" d="M720.08,792.39
			c-5.41,0-10.22-3.24-12.27-8.24c-1.34-3.27-1.33-6.88,0.05-10.14c1.37-3.26,3.93-5.8,7.2-7.14c1.6-0.66,3.29-0.99,5.01-0.99
			c4.02,0,7.76,1.8,10.26,4.88l53.18-30.7V679.1c-6.05-1.3-10.46-6.62-10.46-12.89c0-7.31,5.95-13.25,13.26-13.25
			c7.31,0,13.25,5.94,13.25,13.25c0,6.27-4.41,11.6-10.46,12.89v64.19l-1.39,0.81l-54.85,31.66c1.7,6.39-1.54,13.09-7.77,15.64
			C723.48,792.06,721.8,792.39,720.08,792.39z M720.07,771.47c-0.99,0-1.96,0.19-2.9,0.57c-1.89,0.77-3.37,2.24-4.16,4.13
			c-0.79,1.88-0.8,3.97-0.02,5.86c1.18,2.89,3.97,4.76,7.09,4.76c0.99,0,1.97-0.19,2.9-0.57c3.91-1.6,5.79-6.08,4.19-9.99
			C725.98,773.34,723.2,771.47,720.07,771.47z M786.3,659.46c-3.72,0-6.75,3.03-6.75,6.75c0,3.72,3.03,6.75,6.75,6.75
			s6.75-3.03,6.75-6.75C793.05,662.48,790.02,659.46,786.3,659.46z"/>
		<path class="st7" d="M786.31,654.45c6.48,0,11.75,5.27,11.75,11.75c0,6.04-4.59,10.97-10.46,11.62v64.6l-0.65,0.37l-55.89,32.27
			c2.18,5.91-0.67,12.55-6.54,14.95c-1.42,0.58-2.92,0.88-4.44,0.88c-4.79,0-9.07-2.87-10.88-7.31c-1.19-2.9-1.18-6.1,0.04-8.99
			c1.21-2.9,3.48-5.14,6.39-6.33c1.42-0.58,2.92-0.88,4.44-0.88c4.05,0,7.7,2.06,9.84,5.36l55.1-31.81v-63.11
			c-5.86-0.65-10.46-5.58-10.46-11.62C774.55,659.72,779.83,654.45,786.31,654.45 M786.3,674.45c4.55,0,8.24-3.7,8.24-8.25
			c0-4.55-3.7-8.25-8.24-8.25c-4.55,0-8.25,3.7-8.25,8.25C778.06,670.75,781.75,674.45,786.3,674.45 M720.08,788.3
			c1.19,0,2.35-0.23,3.47-0.68c4.67-1.91,6.92-7.27,5.02-11.95c-1.42-3.46-4.75-5.7-8.49-5.7c-1.19,0-2.35,0.23-3.46,0.68
			c-2.26,0.93-4.03,2.68-4.98,4.93c-0.94,2.26-0.95,4.75-0.03,7.01C713.01,786.07,716.34,788.3,720.08,788.3 M786.31,651.45
			c-8.14,0-14.76,6.62-14.76,14.75c0,6.57,4.34,12.21,10.46,14.06v58.94l-51.37,29.66c-2.75-2.84-6.53-4.47-10.57-4.47
			c-1.92,0-3.79,0.37-5.58,1.1c-3.65,1.49-6.5,4.31-8.02,7.95c-1.53,3.63-1.54,7.64-0.05,11.29c2.27,5.57,7.63,9.17,13.65,9.17
			c1.92,0,3.79-0.37,5.58-1.1c6.58-2.69,10.16-9.52,8.91-16.28l53.89-31.11l0.65-0.38l1.49-0.87v-1.73v-62.17
			c6.12-1.85,10.46-7.48,10.46-14.06C801.06,658.07,794.44,651.45,786.31,651.45L786.31,651.45z M786.3,671.45
			c-2.89,0-5.25-2.35-5.25-5.25c0-2.89,2.35-5.25,5.25-5.25c2.89,0,5.24,2.35,5.24,5.25C791.55,669.1,789.19,671.45,786.3,671.45
			L786.3,671.45z M720.08,785.3c-2.51,0-4.75-1.5-5.7-3.83c-0.62-1.53-0.62-3.2,0.02-4.72c0.64-1.51,1.83-2.69,3.35-3.32
			c0.75-0.3,1.53-0.46,2.33-0.46c2.52,0,4.76,1.51,5.71,3.83c1.28,3.14-0.23,6.75-3.38,8.03
			C721.66,785.15,720.87,785.3,720.08,785.3L720.08,785.3z"/>
	</g>
	<g>
		
			<linearGradient id="SVGID_00000049183654794859046620000010132656069543426458_" gradientUnits="userSpaceOnUse" x1="674.1064" y1="659.1873" x2="766.8496" y2="659.1873">
			<stop  offset="0" style="stop-color:#4D4D4C"/>
			<stop  offset="0.3179" style="stop-color:#000000"/>
			<stop  offset="0.7291" style="stop-color:#4A4A49"/>
			<stop  offset="1" style="stop-color:#000000"/>
		</linearGradient>
		<path style="fill:url(#SVGID_00000049183654794859046620000010132656069543426458_);" d="M753.6,728.91
			c-7.31,0-13.26-5.94-13.26-13.25c0-6.27,4.41-11.6,10.46-12.9V641.8l-53.18-30.7c-2.5,3.08-6.24,4.88-10.25,4.88
			c-1.72,0-3.41-0.33-5.01-0.99c-3.28-1.34-5.83-3.87-7.2-7.14c-1.37-3.26-1.39-6.87-0.04-10.14c2.04-5,6.86-8.24,12.27-8.24
			c1.72,0,3.4,0.33,5.01,0.99c6.24,2.55,9.48,9.25,7.77,15.65l56.24,32.47v64.19c6.05,1.3,10.46,6.62,10.46,12.9
			C766.85,722.96,760.91,728.91,753.6,728.91z M753.6,707.99c-4.23,0-7.67,3.44-7.67,7.66c0,4.22,3.44,7.66,7.67,7.66
			c4.22,0,7.66-3.44,7.66-7.66C761.26,711.43,757.82,707.99,753.6,707.99z M687.37,595.97c-2.75,0-5.21,1.65-6.25,4.2
			c-0.68,1.67-0.67,3.51,0.03,5.16c0.7,1.66,2,2.95,3.67,3.63c0.82,0.34,1.68,0.51,2.55,0.51c2.75,0,5.2-1.65,6.25-4.2
			c1.4-3.44-0.25-7.39-3.69-8.8C689.1,596.14,688.24,595.97,687.37,595.97z"/>
		<path class="st7" d="M687.37,590.97c1.52,0,3.02,0.29,4.44,0.88c5.87,2.4,8.73,9.04,6.54,14.95l56.53,32.64v64.6
			c5.87,0.65,10.46,5.59,10.46,11.62c0,6.48-5.27,11.75-11.75,11.75c-6.48,0-11.76-5.27-11.76-11.75c0-6.04,4.6-10.97,10.46-11.62
			v-63.11l-55.1-31.81c-2.14,3.3-5.79,5.36-9.84,5.36c-1.53,0-3.02-0.29-4.44-0.88c-2.91-1.19-5.18-3.44-6.39-6.33
			c-1.22-2.9-1.23-6.09-0.04-9C678.3,593.83,682.58,590.97,687.37,590.97 M687.36,610.97c3.36,0,6.36-2.01,7.64-5.13
			c1.72-4.21-0.31-9.03-4.51-10.75c-1-0.41-2.05-0.62-3.12-0.62c-3.36,0-6.36,2.01-7.64,5.13c-0.83,2.04-0.82,4.28,0.03,6.31
			c0.85,2.03,2.44,3.61,4.48,4.44C685.24,610.76,686.29,610.97,687.36,610.97 M753.6,724.82c5.05,0,9.16-4.11,9.16-9.16
			c0-5.05-4.11-9.16-9.16-9.16c-5.05,0-9.17,4.11-9.17,9.16C744.43,720.71,748.55,724.82,753.6,724.82 M687.37,587.97
			c-6.02,0-11.39,3.6-13.66,9.17c-1.49,3.65-1.48,7.66,0.05,11.29c1.52,3.63,4.37,6.46,8.02,7.95c1.78,0.73,3.66,1.1,5.58,1.1
			c4.03,0,7.82-1.63,10.56-4.47l51.37,29.66v58.94c-6.12,1.85-10.46,7.49-10.46,14.06c0,8.13,6.62,14.75,14.76,14.75
			c8.13,0,14.75-6.62,14.75-14.75c0-6.57-4.34-12.21-10.46-14.06v-62.17v-1.73l-1.5-0.87l-54.53-31.48
			c1.25-6.76-2.33-13.59-8.91-16.29C691.16,588.34,689.29,587.97,687.37,587.97L687.37,587.97z M687.36,607.97
			c-0.68,0-1.35-0.13-1.98-0.39c-1.3-0.53-2.31-1.53-2.85-2.83c-0.54-1.29-0.55-2.72-0.02-4.02c0.81-1.98,2.72-3.26,4.86-3.26
			c0.68,0,1.34,0.13,1.99,0.39c2.67,1.09,3.96,4.16,2.86,6.84C691.41,606.69,689.5,607.97,687.36,607.97L687.36,607.97z
			 M753.6,721.82c-3.4,0-6.17-2.76-6.17-6.16c0-3.4,2.77-6.16,6.17-6.16c3.4,0,6.16,2.77,6.16,6.16
			C759.76,719.05,757,721.82,753.6,721.82L753.6,721.82z"/>
	</g>
</g>
<linearGradient id="SVGID_00000009559740341536541430000003072916129765958581_" gradientUnits="userSpaceOnUse" x1="684.2165" y1="708.6614" x2="733.1063" y2="708.6614">
	<stop  offset="0" style="stop-color:#4D4D4C"/>
	<stop  offset="0.3179" style="stop-color:#000000"/>
	<stop  offset="0.7291" style="stop-color:#4A4A49"/>
	<stop  offset="1" style="stop-color:#000000"/>
</linearGradient>
<path style="fill:url(#SVGID_00000009559740341536541430000003072916129765958581_);" d="M705.6,751.49c-1.04,0-1.99-0.25-2.83-0.76
	c-1.38-0.84-2.41-2.36-2.96-4.4c-0.39-1.44-0.42-2.67-0.42-2.72c-0.01-0.48,0.22-0.93,0.61-1.21c0.39-0.28,0.9-0.34,1.34-0.17
	c0.02,0.01,2.24,0.85,4.71,1.55c1.43,0.4,2.5,0.64,3.31,0.77c-0.95-0.35-2.1-0.7-3.3-1.07c-2.23-0.69-4.55-1.4-6.38-2.29
	c-1.09-0.53-1.91-1.07-2.49-1.66c-1.04-1.04-1.2-2.09-1.16-2.78c0-0.01,0-0.02,0-0.03c0.05-0.54,0.34-1.03,0.79-1.33
	c1.19-0.79,3.04-0.29,8.45,1.48c1.95,0.64,3.96,1.29,5.68,1.72c0.38,0.09,0.71,0.17,1.01,0.23c-0.18-0.08-0.38-0.16-0.59-0.24
	c-1.47-0.58-3.29-1.15-5.22-1.76c-2.34-0.74-4.75-1.5-6.59-2.3c-1.79-0.79-3.85-1.93-3.77-3.82c0.03-0.69,0.35-1.28,0.9-1.67
	c0.91-0.64,2.29-0.65,4.78-0.06c1.78,0.42,3.96,1.12,6.06,1.8c1.92,0.61,3.9,1.25,5.51,1.65c0.77,0.19,1.35,0.31,1.78,0.37
	c-0.27-0.14-0.63-0.31-1.11-0.5c-1.27-0.5-2.94-0.98-4.71-1.49c-3.57-1.03-7.62-2.19-10.33-4.05c-1.63-1.12-2.65-2.36-3.22-3.9
	c-0.5-1.35-0.58-2.78-0.67-4.29c-0.15-2.65-0.35-5.95-2.85-10.56c-3.42-4.27-5.74-8.68-6.89-13.11c-1.11-4.25-1.11-8.37-0.02-12.25
	c1-3.56,2.88-6.73,5.57-9.43c2.68-2.69,6.02-4.76,9.94-6.17c0,0,0,0,0,0c1.73-0.61,3.79-1.01,5.97-1.14
	c2.5-0.16,4.99,0.03,7.42,0.56c6.06,1.32,11.12,4.68,14.63,9.72c0,0,0.01,0.01,0.01,0.01c2.1,3.07,3.48,6.18,4.12,9.25
	c0.6,2.88,0.55,5.79-0.13,8.66c-1.17,4.9-4.16,9.72-9.14,14.73c-0.08,0.08-0.95,1.05-2.03,3.09c-1.05,1.97-2.51,5.36-3.55,10.36
	c-0.06,0.3-0.54,2.46-2.28,3.74c-1.76,1.4-4.44,1.6-7,0.53c-0.24-0.09-0.88-0.35-1.53-0.9c-1.06-0.9-1.64-2.11-1.68-3.52
	c0-0.01,0-0.01,0-0.02c0-0.11-0.18-10.74-0.18-14.93c0-1.14-1.64-2.46-3.08-3.63c-0.84-0.68-1.7-1.37-2.36-2.11
	c-0.72-0.8-1.1-1.85-1.07-2.96c0.02-0.99,0.38-1.94,0.97-2.52c0.02-0.02,0.04-0.04,0.06-0.06c1.17-1.04,2.25-0.95,2.96-0.69
	c0.73,0.27,1.27,0.79,1.74,1.24c0.11,0.11,0.25,0.24,0.37,0.35c0.09-0.25,0.18-0.59,0.24-0.82c0.2-0.77,0.44-1.63,0.95-2.36
	c0.72-1.02,1.79-1.5,3.1-1.38c1.17,0.11,2.09,0.68,2.64,1.67c0.4,0.71,0.55,1.51,0.66,2.16c0.01,0.06,0.02,0.12,0.03,0.19
	c0.21-0.21,0.44-0.45,0.6-0.62c0.44-0.48,0.9-0.98,1.44-1.34c1.1-0.75,2.03-0.61,2.62-0.36c0,0,0.01,0,0.01,0
	c1.14,0.5,1.89,1.43,2.1,2.62c0.5,2.84-2.17,6.43-3.23,7.45c-2.28,2.34-5.82,3.03-5.97,3.05c-0.78,0.15-1.54-0.37-1.68-1.15
	c-0.15-0.78,0.37-1.53,1.15-1.68l0,0c0.03-0.01,2.82-0.56,4.45-2.25c0.01-0.01,0.03-0.03,0.04-0.04c0.95-0.91,2.62-3.59,2.4-4.88
	c-0.03-0.16-0.08-0.28-0.25-0.39c-0.26,0.18-0.71,0.66-0.96,0.93c-0.79,0.85-1.76,1.9-3.07,1.9c-0.1,0-0.2-0.01-0.31-0.02
	c-0.47-0.06-1.34-0.32-1.82-1.41c-0.21-0.47-0.3-0.99-0.39-1.49c-0.25-1.41-0.39-1.42-0.73-1.45c-0.34-0.03-0.4,0.05-0.48,0.16
	c-0.22,0.31-0.38,0.92-0.52,1.45c-0.14,0.52-0.28,1.06-0.51,1.54c-0.37,0.78-0.91,1.28-1.61,1.5c-0.5,0.16-1.27,0.23-2.15-0.3
	c-0.45-0.27-0.82-0.63-1.14-0.95c-0.18-0.18-0.47-0.46-0.64-0.56c-0.02,0.01-0.04,0.03-0.07,0.05c-0.13,0.21-0.28,0.95,0.22,1.51
	c0.5,0.56,1.23,1.15,2.01,1.78c1.95,1.57,4.15,3.35,4.15,5.87c0,4.12,0.17,14.52,0.18,14.88c0.02,0.57,0.23,1.03,0.66,1.38
	c0.31,0.26,0.62,0.38,0.62,0.38c0.04,0.01,0.09,0.03,0.13,0.05c1.58,0.67,3.21,0.63,4.13-0.12c0.02-0.01,0.04-0.03,0.06-0.04
	c0.74-0.54,1.1-1.61,1.18-1.99c0-0.01,0-0.01,0-0.02c2.18-10.48,6.17-14.71,6.34-14.88c0,0,0.01-0.01,0.01-0.01
	c9.96-10.02,11.49-19.24,4.84-29c-6.84-9.82-18.77-10.15-24.68-8.06c-6.97,2.5-11.97,7.48-13.71,13.66
	c-1.99,7.09,0.3,15.21,6.46,22.86c0.05,0.07,0.1,0.14,0.14,0.21c2.87,5.24,3.09,9.08,3.26,11.89c0.17,2.89,0.25,4.34,2.64,5.98
	c2.31,1.59,6.13,2.69,9.49,3.65c4.36,1.25,7.51,2.16,8.44,4.1c0.34,0.7,0.35,1.47,0.03,2.21c-0.25,0.6-0.87,1.33-2.39,1.4
	c-0.68,0.03-1.54-0.07-2.64-0.31c-1.88-0.41-4.28-1.18-6.59-1.92c-1.91-0.61-3.88-1.24-5.48-1.65c-0.37-0.09-0.7-0.17-0.98-0.23
	c0.3,0.15,0.67,0.31,1.1,0.49c1.63,0.66,3.71,1.32,5.73,1.95c2.36,0.74,4.59,1.44,6.28,2.19c1,0.44,1.74,0.87,2.25,1.31
	c1.18,1.01,1.14,2.04,1.01,2.57c-0.15,0.6-0.54,1.1-1.09,1.4c-1.83,1.01-5.4-0.07-11.08-1.92c-1.38-0.45-2.69-0.88-3.81-1.2
	c0.11,0.06,0.24,0.12,0.37,0.18c1.64,0.8,3.84,1.47,5.97,2.13c1.74,0.54,3.39,1.04,4.63,1.59c0.76,0.34,1.31,0.66,1.72,1.02
	c0.94,0.82,0.98,1.69,0.91,2.14c-0.1,0.69-0.5,1.28-1.12,1.64c-0.42,0.25-1.03,0.47-2.12,0.47c-1.17,0-2.89-0.25-5.55-1
	c-0.99-0.28-1.94-0.58-2.75-0.84c0.29,1,0.8,2.02,1.63,2.52c1,0.6,2.47,0.42,4.39-0.54c0.71-0.36,1.58-0.07,1.94,0.65
	s0.07,1.58-0.65,1.94C708.36,751.09,706.91,751.49,705.6,751.49z"/>
<g class="st12">
	<g class="st13">
		<ellipse class="st14" cx="708.72" cy="758.68" rx="21.63" ry="3.89"/>
		<ellipse class="st14" cx="708.72" cy="758.68" rx="21.47" ry="3.86"/>
		<ellipse class="st14" cx="708.72" cy="758.68" rx="21.3" ry="3.84"/>
		<ellipse class="st14" cx="708.72" cy="758.68" rx="21.14" ry="3.81"/>
		<ellipse class="st14" cx="708.72" cy="758.68" rx="20.97" ry="3.78"/>
		<ellipse class="st14" cx="708.72" cy="758.68" rx="20.81" ry="3.75"/>
		<ellipse class="st14" cx="708.72" cy="758.68" rx="20.64" ry="3.72"/>
		<ellipse class="st14" cx="708.72" cy="758.68" rx="20.47" ry="3.69"/>
		<ellipse class="st14" cx="708.72" cy="758.68" rx="20.31" ry="3.66"/>
		<ellipse class="st14" cx="708.72" cy="758.68" rx="20.14" ry="3.63"/>
		<ellipse class="st14" cx="708.72" cy="758.68" rx="19.98" ry="3.6"/>
		<ellipse class="st14" cx="708.72" cy="758.68" rx="19.81" ry="3.57"/>
		<ellipse class="st14" cx="708.72" cy="758.68" rx="19.65" ry="3.54"/>
		<ellipse class="st14" cx="708.72" cy="758.68" rx="19.48" ry="3.51"/>
		<ellipse class="st14" cx="708.72" cy="758.68" rx="19.32" ry="3.48"/>
		<ellipse class="st14" cx="708.72" cy="758.68" rx="19.15" ry="3.45"/>
		<ellipse class="st14" cx="708.72" cy="758.68" rx="18.99" ry="3.42"/>
		<ellipse class="st14" cx="708.72" cy="758.68" rx="18.82" ry="3.39"/>
		<ellipse class="st14" cx="708.72" cy="758.68" rx="18.66" ry="3.36"/>
		<ellipse class="st14" cx="708.72" cy="758.68" rx="18.49" ry="3.33"/>
		<ellipse class="st14" cx="708.72" cy="758.68" rx="18.33" ry="3.3"/>
		<ellipse class="st14" cx="708.72" cy="758.68" rx="18.16" ry="3.27"/>
		<ellipse class="st14" cx="708.72" cy="758.68" rx="18" ry="3.24"/>
		<ellipse class="st14" cx="708.72" cy="758.68" rx="17.83" ry="3.21"/>
		<ellipse class="st14" cx="708.72" cy="758.68" rx="17.67" ry="3.18"/>
		<ellipse class="st14" cx="708.72" cy="758.68" rx="17.5" ry="3.15"/>
		<ellipse class="st14" cx="708.72" cy="758.68" rx="17.34" ry="3.12"/>
		<ellipse class="st14" cx="708.72" cy="758.68" rx="17.17" ry="3.09"/>
		<ellipse class="st14" cx="708.72" cy="758.68" rx="17.01" ry="3.06"/>
		<ellipse class="st14" cx="708.72" cy="758.68" rx="16.84" ry="3.03"/>
		<ellipse class="st14" cx="708.72" cy="758.68" rx="16.68" ry="3"/>
		<ellipse class="st14" cx="708.72" cy="758.68" rx="16.51" ry="2.97"/>
		<ellipse class="st14" cx="708.72" cy="758.68" rx="16.35" ry="2.94"/>
		<ellipse class="st14" cx="708.72" cy="758.68" rx="16.18" ry="2.91"/>
		<ellipse class="st14" cx="708.72" cy="758.68" rx="16.02" ry="2.88"/>
		<ellipse class="st14" cx="708.72" cy="758.68" rx="15.85" ry="2.85"/>
		<ellipse class="st14" cx="708.72" cy="758.68" rx="15.69" ry="2.82"/>
		<ellipse class="st14" cx="708.72" cy="758.68" rx="15.52" ry="2.79"/>
		<ellipse class="st14" cx="708.72" cy="758.68" rx="15.36" ry="2.76"/>
		<ellipse class="st14" cx="708.72" cy="758.68" rx="15.19" ry="2.74"/>
		<ellipse class="st14" cx="708.72" cy="758.68" rx="15.03" ry="2.71"/>
		<ellipse class="st14" cx="708.72" cy="758.68" rx="14.86" ry="2.68"/>
		<ellipse class="st14" cx="708.72" cy="758.68" rx="14.7" ry="2.65"/>
		<ellipse class="st14" cx="708.72" cy="758.68" rx="14.53" ry="2.62"/>
		<ellipse class="st14" cx="708.72" cy="758.68" rx="14.37" ry="2.59"/>
		<ellipse class="st14" cx="708.72" cy="758.68" rx="14.2" ry="2.56"/>
		<ellipse class="st14" cx="708.72" cy="758.68" rx="14.04" ry="2.53"/>
		<ellipse class="st14" cx="708.72" cy="758.68" rx="13.87" ry="2.5"/>
		<ellipse class="st14" cx="708.72" cy="758.68" rx="13.71" ry="2.47"/>
		<ellipse class="st14" cx="708.72" cy="758.68" rx="13.54" ry="2.44"/>
		<ellipse class="st14" cx="708.72" cy="758.68" rx="13.37" ry="2.41"/>
		<ellipse class="st14" cx="708.72" cy="758.68" rx="13.21" ry="2.38"/>
		<ellipse class="st14" cx="708.72" cy="758.68" rx="13.04" ry="2.35"/>
		<ellipse class="st14" cx="708.72" cy="758.68" rx="12.88" ry="2.32"/>
		<ellipse class="st14" cx="708.72" cy="758.68" rx="12.71" ry="2.29"/>
		<ellipse class="st14" cx="708.72" cy="758.68" rx="12.55" ry="2.26"/>
		<ellipse class="st14" cx="708.72" cy="758.68" rx="12.38" ry="2.23"/>
		<ellipse class="st14" cx="708.72" cy="758.68" rx="12.22" ry="2.2"/>
		<ellipse class="st14" cx="708.72" cy="758.68" rx="12.05" ry="2.17"/>
		<ellipse class="st14" cx="708.72" cy="758.68" rx="11.89" ry="2.14"/>
		<ellipse class="st14" cx="708.72" cy="758.68" rx="11.72" ry="2.11"/>
		<ellipse class="st14" cx="708.72" cy="758.68" rx="11.56" ry="2.08"/>
		<ellipse class="st14" cx="708.72" cy="758.68" rx="11.39" ry="2.05"/>
		<ellipse class="st14" cx="708.72" cy="758.68" rx="11.23" ry="2.02"/>
		<ellipse class="st14" cx="708.72" cy="758.68" rx="11.06" ry="1.99"/>
		<ellipse class="st14" cx="708.72" cy="758.68" rx="10.9" ry="1.96"/>
		<ellipse class="st14" cx="708.72" cy="758.68" rx="10.73" ry="1.93"/>
		<ellipse class="st14" cx="708.72" cy="758.68" rx="10.57" ry="1.9"/>
		<ellipse class="st14" cx="708.72" cy="758.68" rx="10.4" ry="1.87"/>
		<ellipse class="st14" cx="708.72" cy="758.68" rx="10.24" ry="1.84"/>
		<ellipse class="st14" cx="708.72" cy="758.68" rx="10.07" ry="1.81"/>
		<ellipse class="st14" cx="708.72" cy="758.68" rx="9.91" ry="1.78"/>
		<ellipse class="st14" cx="708.72" cy="758.68" rx="9.74" ry="1.75"/>
		<ellipse class="st14" cx="708.72" cy="758.68" rx="9.58" ry="1.72"/>
		<ellipse class="st14" cx="708.72" cy="758.68" rx="9.41" ry="1.69"/>
		<ellipse class="st14" cx="708.72" cy="758.68" rx="9.25" ry="1.66"/>
		<ellipse class="st14" cx="708.72" cy="758.68" rx="9.08" ry="1.64"/>
		<ellipse class="st14" cx="708.72" cy="758.68" rx="8.92" ry="1.61"/>
		<ellipse class="st14" cx="708.72" cy="758.68" rx="8.75" ry="1.58"/>
		<ellipse class="st14" cx="708.72" cy="758.68" rx="8.59" ry="1.55"/>
		<ellipse class="st14" cx="708.72" cy="758.68" rx="8.42" ry="1.52"/>
		<ellipse class="st14" cx="708.72" cy="758.68" rx="8.26" ry="1.49"/>
		<ellipse class="st14" cx="708.72" cy="758.68" rx="8.09" ry="1.46"/>
		<ellipse class="st14" cx="708.72" cy="758.68" rx="7.93" ry="1.43"/>
		<ellipse class="st14" cx="708.72" cy="758.68" rx="7.76" ry="1.4"/>
		<ellipse class="st14" cx="708.72" cy="758.68" rx="7.6" ry="1.37"/>
		<ellipse class="st14" cx="708.72" cy="758.68" rx="7.43" ry="1.34"/>
		<ellipse class="st14" cx="708.72" cy="758.68" rx="7.27" ry="1.31"/>
		<ellipse class="st14" cx="708.72" cy="758.68" rx="7.1" ry="1.28"/>
		<ellipse class="st14" cx="708.72" cy="758.68" rx="6.94" ry="1.25"/>
		<ellipse class="st14" cx="708.72" cy="758.68" rx="6.77" ry="1.22"/>
		<ellipse class="st14" cx="708.72" cy="758.68" rx="6.6" ry="1.19"/>
		<ellipse class="st14" cx="708.72" cy="758.68" rx="6.44" ry="1.16"/>
		<ellipse class="st14" cx="708.72" cy="758.68" rx="6.27" ry="1.13"/>
		<ellipse class="st14" cx="708.72" cy="758.68" rx="6.11" ry="1.1"/>
		<ellipse class="st14" cx="708.72" cy="758.68" rx="5.94" ry="1.07"/>
		<ellipse class="st14" cx="708.72" cy="758.68" rx="5.78" ry="1.04"/>
		<ellipse class="st14" cx="708.72" cy="758.68" rx="5.61" ry="1.01"/>
		<ellipse class="st14" cx="708.72" cy="758.68" rx="5.45" ry="0.98"/>
		<ellipse class="st14" cx="708.72" cy="758.68" rx="5.28" ry="0.95"/>
		<ellipse class="st14" cx="708.72" cy="758.68" rx="5.12" ry="0.92"/>
		<ellipse class="st14" cx="708.72" cy="758.68" rx="4.95" ry="0.89"/>
		<ellipse class="st14" cx="708.72" cy="758.68" rx="4.79" ry="0.86"/>
		<ellipse class="st15" cx="708.72" cy="758.68" rx="4.62" ry="0.83"/>
		<ellipse class="st15" cx="708.72" cy="758.68" rx="4.46" ry="0.8"/>
		<ellipse class="st15" cx="708.72" cy="758.68" rx="4.29" ry="0.77"/>
		<ellipse class="st15" cx="708.72" cy="758.68" rx="4.13" ry="0.74"/>
		<ellipse class="st15" cx="708.72" cy="758.68" rx="3.96" ry="0.71"/>
		<ellipse class="st15" cx="708.72" cy="758.68" rx="3.8" ry="0.68"/>
		<ellipse class="st15" cx="708.72" cy="758.68" rx="3.63" ry="0.65"/>
		<ellipse class="st15" cx="708.72" cy="758.68" rx="3.47" ry="0.62"/>
		<ellipse class="st15" cx="708.72" cy="758.68" rx="3.3" ry="0.59"/>
		<ellipse class="st15" cx="708.72" cy="758.68" rx="3.14" ry="0.56"/>
		<ellipse class="st15" cx="708.72" cy="758.68" rx="2.97" ry="0.54"/>
		<ellipse class="st15" cx="708.72" cy="758.68" rx="2.81" ry="0.51"/>
		<ellipse class="st15" cx="708.72" cy="758.68" rx="2.64" ry="0.48"/>
		<ellipse class="st15" cx="708.72" cy="758.68" rx="2.48" ry="0.45"/>
		<ellipse class="st15" cx="708.72" cy="758.68" rx="2.31" ry="0.42"/>
		<ellipse class="st15" cx="708.72" cy="758.68" rx="2.15" ry="0.39"/>
		<ellipse class="st15" cx="708.72" cy="758.68" rx="1.98" ry="0.36"/>
		<ellipse class="st15" cx="708.72" cy="758.68" rx="1.82" ry="0.33"/>
		<ellipse class="st15" cx="708.72" cy="758.68" rx="1.65" ry="0.3"/>
		<path class="st15" d="M710.21,758.68c0,0.15-0.67,0.27-1.49,0.27c-0.82,0-1.49-0.12-1.49-0.27c0-0.15,0.67-0.27,1.49-0.27
			C709.54,758.41,710.21,758.53,710.21,758.68z"/>
		<path class="st15" d="M710.04,758.68c0,0.13-0.59,0.24-1.32,0.24s-1.32-0.11-1.32-0.24s0.59-0.24,1.32-0.24
			S710.04,758.55,710.04,758.68z"/>
		<path class="st15" d="M709.88,758.68c0,0.11-0.52,0.21-1.16,0.21c-0.64,0-1.16-0.09-1.16-0.21c0-0.11,0.52-0.21,1.16-0.21
			C709.36,758.47,709.88,758.57,709.88,758.68z"/>
		<path class="st15" d="M709.71,758.68c0,0.1-0.44,0.18-0.99,0.18c-0.55,0-0.99-0.08-0.99-0.18s0.44-0.18,0.99-0.18
			C709.27,758.5,709.71,758.58,709.71,758.68z"/>
		<path class="st15" d="M709.54,758.68c0,0.08-0.37,0.15-0.83,0.15c-0.46,0-0.83-0.07-0.83-0.15c0-0.08,0.37-0.15,0.83-0.15
			C709.18,758.53,709.54,758.6,709.54,758.68z"/>
		<path class="st15" d="M709.38,758.68c0,0.07-0.3,0.12-0.66,0.12c-0.36,0-0.66-0.05-0.66-0.12s0.3-0.12,0.66-0.12
			C709.08,758.56,709.38,758.61,709.38,758.68z"/>
		<path class="st15" d="M709.21,758.68c0,0.05-0.22,0.09-0.5,0.09c-0.27,0-0.5-0.04-0.5-0.09c0-0.05,0.22-0.09,0.5-0.09
			C708.99,758.59,709.21,758.63,709.21,758.68z"/>
		<ellipse class="st15" cx="708.72" cy="758.68" rx="0.33" ry="0.06"/>
		<path class="st15" d="M708.88,758.68c0,0.02-0.07,0.03-0.17,0.03c-0.09,0-0.17-0.01-0.17-0.03c0-0.02,0.07-0.03,0.17-0.03
			C708.81,758.65,708.88,758.66,708.88,758.68z"/>
	</g>
</g>
<g>
	
		<linearGradient id="SVGID_00000072968896666808874490000013771730472700047005_" gradientUnits="userSpaceOnUse" x1="659.4681" y1="929.9642" x2="659.4681" y2="881.5807">
		<stop  offset="0" style="stop-color:#4D4D4C"/>
		<stop  offset="0.3179" style="stop-color:#000000"/>
		<stop  offset="0.7291" style="stop-color:#4A4A49"/>
		<stop  offset="1" style="stop-color:#000000"/>
	</linearGradient>
	<path style="fill:url(#SVGID_00000072968896666808874490000013771730472700047005_);" d="M676.07,929.96h-12.23v-20.74h-8.74v20.74
		h-12.23v-41.47l13.11-6.91h20.1v19.35l-8.3,4.84l8.3,4.84V929.96z M663.84,902.32v-13.82h-8.74v13.82H663.84z"/>
	
		<linearGradient id="SVGID_00000016050274391277516720000007815897741566365595_" gradientUnits="userSpaceOnUse" x1="685.7686" y1="929.9642" x2="685.7686" y2="920.2874">
		<stop  offset="0" style="stop-color:#4D4D4C"/>
		<stop  offset="0.3179" style="stop-color:#000000"/>
		<stop  offset="0.7291" style="stop-color:#4A4A49"/>
		<stop  offset="1" style="stop-color:#000000"/>
	</linearGradient>
	<path style="fill:url(#SVGID_00000016050274391277516720000007815897741566365595_);" d="M691.88,929.96h-12.23v-9.68h12.23V929.96
		z"/>
	
		<linearGradient id="SVGID_00000047054835680750482520000002653090316573335712_" gradientUnits="userSpaceOnUse" x1="708.6611" y1="929.9642" x2="708.6611" y2="881.5807">
		<stop  offset="0" style="stop-color:#4D4D4C"/>
		<stop  offset="0.3179" style="stop-color:#000000"/>
		<stop  offset="0.7291" style="stop-color:#4A4A49"/>
		<stop  offset="1" style="stop-color:#000000"/>
	</linearGradient>
	<path style="fill:url(#SVGID_00000047054835680750482520000002653090316573335712_);" d="M721.59,919.18l-8.21,4.35v6.43h-9.44
		v-5.39h-8.21V909.5l6.47-3.73l-6.47-3.73v-9.68l8.21-4.35v-6.43h9.44v5.39h8.21v13.41h-9.52v-8.02h-6.81v10.64h11.53l-4.72,5.46
		h-6.81v10.71h6.81v-8.02h9.52V919.18z"/>
	
		<linearGradient id="SVGID_00000119093983194502690370000006066270173490471868_" gradientUnits="userSpaceOnUse" x1="731.2922" y1="929.9642" x2="731.2922" y2="920.2874">
		<stop  offset="0" style="stop-color:#4D4D4C"/>
		<stop  offset="0.3179" style="stop-color:#000000"/>
		<stop  offset="0.7291" style="stop-color:#4A4A49"/>
		<stop  offset="1" style="stop-color:#000000"/>
	</linearGradient>
	<path style="fill:url(#SVGID_00000119093983194502690370000006066270173490471868_);" d="M737.41,929.96h-12.23v-9.68h12.23V929.96
		z"/>
	
		<linearGradient id="SVGID_00000023978622239924924260000000160063560179312012_" gradientUnits="userSpaceOnUse" x1="757.8546" y1="929.9642" x2="757.8546" y2="881.5807">
		<stop  offset="0" style="stop-color:#4D4D4C"/>
		<stop  offset="0.3179" style="stop-color:#000000"/>
		<stop  offset="0.7291" style="stop-color:#4A4A49"/>
		<stop  offset="1" style="stop-color:#000000"/>
	</linearGradient>
	<path style="fill:url(#SVGID_00000023978622239924924260000000160063560179312012_);" d="M774.46,923.05l-13.11,6.91h-20.1v-48.38
		h20.1l13.11,6.91V923.05z M762.22,923.05v-34.56h-8.74v34.56H762.22z"/>
</g>
</svg>
